<svg width="50" height="50" viewBox="0 0 50 50" fill="none" xmlns="http://www.w3.org/2000/svg">
<g clip-path="url(#clip0)">
<path d="M15.625 28.9062H9.375C8.94375 28.9062 8.59375 29.2555 8.59375 29.6875V43.75C8.59375 44.182 8.94375 44.5312 9.375 44.5312H15.625C16.0562 44.5312 16.4062 44.182 16.4062 43.75V29.6875C16.4062 29.2555 16.0562 28.9062 15.625 28.9062ZM14.8437 42.9687H10.1562V30.4687H14.8437V42.9687Z" fill="#6137A5"/>
<path d="M28.125 22.6562H21.875C21.4437 22.6562 21.0938 23.0062 21.0938 23.4375V43.75C21.0938 44.182 21.4437 44.5312 21.875 44.5312H28.125C28.557 44.5312 28.9062 44.182 28.9062 43.75V23.4375C28.9062 23.0062 28.557 22.6562 28.125 22.6562ZM27.3437 42.9687H22.6562V24.2187H27.3437V42.9687Z" fill="#6137A5"/>
<path d="M40.625 5.46875H34.375C33.943 5.46875 33.5938 5.81875 33.5938 6.25V43.75C33.5938 44.182 33.943 44.5313 34.375 44.5313H40.625C41.057 44.5313 41.4063 44.182 41.4063 43.75V6.25C41.4063 5.81875 41.057 5.46875 40.625 5.46875ZM39.8438 42.9688H35.1563V7.03125H39.8438V42.9688Z" fill="#6137A5"/>
</g>
<defs>
<clipPath id="clip0">
<rect width="72.4638" height="72.4638"  transform="scale(0.69)"/>
</clipPath>
</defs>
</svg>
