<svg width="51" height="50" viewBox="0 0 51 50" fill="none" xmlns="http://www.w3.org/2000/svg">
<g clip-path="url(#clip0)">
<path d="M43.9141 5.46875H6.41406C5.98281 5.46875 5.63281 5.81875 5.63281 6.25V43.75C5.63281 44.182 5.98281 44.5312 6.41406 44.5312H43.9141C44.3461 44.5312 44.6953 44.182 44.6953 43.75V6.25C44.6953 5.81875 44.3461 5.46875 43.9141 5.46875ZM43.1328 24.2187H25.9453V7.03125H43.1328V24.2187ZM24.3828 7.03125V24.2187H7.19531V7.03125H24.3828ZM7.19531 25.7812H24.3828V42.9687H7.19531V25.7812ZM25.9453 42.9687V25.7812H43.1328V42.9687H25.9453Z" fill="#6137A5"/>
<path d="M12.6641 16.4062H15.0078V18.75C15.0078 19.1812 15.3578 19.5312 15.7891 19.5312C16.2203 19.5312 16.5703 19.1812 16.5703 18.75V16.4062H18.9141C19.3453 16.4062 19.6953 16.0562 19.6953 15.625C19.6953 15.1937 19.3453 14.8437 18.9141 14.8437H16.5703V12.5C16.5703 12.0688 16.2203 11.7188 15.7891 11.7188C15.3578 11.7188 15.0078 12.0688 15.0078 12.5V14.8437H12.6641C12.2328 14.8437 11.8828 15.1937 11.8828 15.625C11.8828 16.0562 12.2328 16.4062 12.6641 16.4062Z" fill="#6137A5"/>
<path d="M31.4141 16.4063H37.6641C38.0961 16.4063 38.4453 16.0563 38.4453 15.625C38.4453 15.1938 38.0961 14.8438 37.6641 14.8438H31.4141C30.982 14.8438 30.6328 15.1938 30.6328 15.625C30.6328 16.0563 30.982 16.4063 31.4141 16.4063Z" fill="#6137A5"/>
<path d="M18.9141 33.5938H12.6641C12.2328 33.5938 11.8828 33.943 11.8828 34.375C11.8828 34.807 12.2328 35.1563 12.6641 35.1563H18.9141C19.3453 35.1563 19.6953 34.807 19.6953 34.375C19.6953 33.943 19.3453 33.5938 18.9141 33.5938Z" fill="#6137A5"/>
<path d="M37.1666 31.4791C36.8611 31.1736 36.3674 31.1736 36.0619 31.4791L34.4049 33.1361L32.7479 31.4791C32.4424 31.1736 31.9486 31.1736 31.6432 31.4791C31.3377 31.7846 31.3377 32.2783 31.6432 32.5838L33.3002 34.2408L31.6432 35.8979C31.3377 36.2033 31.3377 36.6971 31.6432 37.0025C31.7955 37.1549 31.9955 37.2314 32.1955 37.2314C32.3955 37.2314 32.5955 37.1549 32.7479 37.0025L34.4049 35.3455L36.0619 37.0025C36.2143 37.1549 36.4143 37.2314 36.6143 37.2314C36.8143 37.2314 37.0143 37.1549 37.1666 37.0025C37.4721 36.6971 37.4721 36.2033 37.1666 35.8979L35.5096 34.2408L37.1666 32.5838C37.4721 32.2783 37.4721 31.7846 37.1666 31.4791Z" fill="#6137A5"/>
<path d="M15.7891 31.25C16.652 31.25 17.3516 30.5504 17.3516 29.6875C17.3516 28.8246 16.652 28.125 15.7891 28.125C14.9261 28.125 14.2266 28.8246 14.2266 29.6875C14.2266 30.5504 14.9261 31.25 15.7891 31.25Z" fill="#6137A5"/>
<path d="M15.7891 40.625C16.652 40.625 17.3516 39.9254 17.3516 39.0625C17.3516 38.1996 16.652 37.5 15.7891 37.5C14.9261 37.5 14.2266 38.1996 14.2266 39.0625C14.2266 39.9254 14.9261 40.625 15.7891 40.625Z" fill="#6137A5"/>
</g>
<defs>
<clipPath id="clip0">
<rect width="72.4638" height="72.4638"  transform="translate(0.164062) scale(0.69)"/>
</clipPath>
</defs>
</svg>
