<svg width="50" height="51" viewBox="0 0 50 51" fill="none" xmlns="http://www.w3.org/2000/svg">
<g clip-path="url(#clip0)">
<path d="M40.625 11.8984H9.375C7.22109 11.8984 5.46875 13.6508 5.46875 15.8047V34.5547C5.46875 36.7086 7.22109 38.4609 9.375 38.4609H40.625C42.7789 38.4609 44.5312 36.7086 44.5312 34.5547V15.8047C44.5312 13.6508 42.7789 11.8984 40.625 11.8984ZM7.03125 19.7109H42.9687V22.8359H7.03125V19.7109ZM9.375 13.4609H40.625C41.9172 13.4609 42.9687 14.5125 42.9687 15.8047V18.1484H7.03125V15.8047C7.03125 14.5125 8.08281 13.4609 9.375 13.4609ZM40.625 36.8984H9.375C8.08281 36.8984 7.03125 35.8469 7.03125 34.5547V24.3984H42.9687V34.5547C42.9687 35.8469 41.9172 36.8984 40.625 36.8984Z" fill="#6137A5"/>
<path d="M14.0625 30.6484H12.5C12.0688 30.6484 11.7188 30.9977 11.7188 31.4297C11.7188 31.8617 12.0688 32.2109 12.5 32.2109H14.0625C14.4938 32.2109 14.8438 31.8617 14.8438 31.4297C14.8438 30.9977 14.4938 30.6484 14.0625 30.6484Z" fill="#6137A5"/>
<path d="M20.3125 30.6484H18.75C18.3187 30.6484 17.9688 30.9977 17.9688 31.4297C17.9688 31.8617 18.3187 32.2109 18.75 32.2109H20.3125C20.7437 32.2109 21.0937 31.8617 21.0937 31.4297C21.0937 30.9977 20.7437 30.6484 20.3125 30.6484Z" fill="#6137A5"/>
<path d="M26.5625 30.6484H25C24.5688 30.6484 24.2188 30.9977 24.2188 31.4297C24.2188 31.8617 24.5688 32.2109 25 32.2109H26.5625C26.9945 32.2109 27.3438 31.8617 27.3438 31.4297C27.3438 30.9977 26.9945 30.6484 26.5625 30.6484Z" fill="#6137A5"/>
<path d="M32.8125 30.6484H31.25C30.818 30.6484 30.4688 30.9977 30.4688 31.4297C30.4688 31.8617 30.818 32.2109 31.25 32.2109H32.8125C33.2445 32.2109 33.5937 31.8617 33.5937 31.4297C33.5937 30.9977 33.2445 30.6484 32.8125 30.6484Z" fill="#6137A5"/>
</g>
<defs>
<clipPath id="clip0">
<rect width="72.4638" height="72.4638"  transform="translate(0 0.179688) scale(0.69)"/>
</clipPath>
</defs>
</svg>
