<svg width="50" height="50" viewBox="0 0 50 50" fill="none" xmlns="http://www.w3.org/2000/svg">
<g clip-path="url(#clip0)">
<path fill-rule="evenodd" clip-rule="evenodd" d="M38.4452 28.3473C38.2678 28.3473 38.0904 28.3011 37.913 28.1625L30.8174 23.4964C30.8013 23.4853 30.7786 23.4701 30.7499 23.4509C30.3037 23.152 28.4107 21.8842 27.5356 19.8005C26.3826 20.1701 25.2295 20.5397 23.9434 21.0479L23.8104 21.0941L23.7278 21.1247C22.333 21.6412 19.7894 22.5832 18.3112 20.8169C17.513 19.8467 17.2025 18.9228 17.3799 17.9526C17.4995 17.361 17.7903 16.8586 18.181 16.4224L16.0953 16.8889H15.8736C15.7849 16.8889 15.6518 16.8889 15.5631 16.8427C15.5631 16.8427 13.5231 16.1497 12.4588 15.7802C11.9266 15.5954 11.6605 14.9948 11.8379 14.4866C12.0153 13.9322 12.5918 13.655 13.0797 13.8398C13.2649 13.9041 13.4836 13.9809 13.718 14.0632L13.718 14.0632L13.718 14.0632C14.4936 14.3355 15.4411 14.6681 15.9179 14.81L22.8805 13.2392C23.0086 13.2059 23.1366 13.202 23.2591 13.2229C24.0325 12.7579 24.8072 12.2709 25.5399 11.762C27.7487 10.2281 30.1838 11.4451 30.6532 11.6797C30.6927 11.6994 30.7183 11.7122 30.7287 11.7158C30.7287 11.7158 30.773 11.7158 30.773 11.762C30.773 11.762 33.0348 13.2866 35.0304 14.2567C36.3608 14.9035 37.8243 14.4877 39.4209 14.0257C39.5982 13.9795 39.7645 13.9333 39.9309 13.8871C40.0972 13.8409 40.2635 13.7947 40.4409 13.7485C40.973 13.6099 41.5052 13.9333 41.6383 14.5339C41.7713 15.0883 41.4609 15.6427 40.8843 15.7813L40.8841 15.7813L40.8841 15.7814L40.884 15.7814L40.884 15.7814L40.884 15.7814L40.884 15.7814C40.5737 15.8737 40.2633 15.9661 39.9087 16.0585C38.1348 16.5666 36.1391 17.121 34.1434 16.1509C32.1478 15.1807 29.9747 13.7485 29.6643 13.5176C29.4869 13.4252 27.8904 12.5936 26.6043 13.4713C25.4956 14.2567 24.2982 14.9497 23.1452 15.5965L22.8791 15.7813C22.7934 15.8259 22.7032 15.8753 22.6099 15.9264C22.4132 16.034 22.2026 16.1493 21.9921 16.2433C20.9721 16.7514 19.4643 17.5368 19.3312 18.3222C19.2425 18.6918 19.553 19.1076 19.8191 19.431C20.3956 20.1239 22.1695 19.4772 23.1008 19.1076L23.2339 19.0614C24.9191 18.4146 26.4269 17.9064 27.8904 17.4906C28.1565 17.3982 28.4226 17.4444 28.6887 17.583C28.9104 17.7216 29.0878 17.9526 29.1321 18.2298C29.5138 20.0191 31.2096 21.2266 31.6747 21.5578L31.6747 21.5578L31.6748 21.5579L31.6749 21.5579C31.75 21.6115 31.793 21.6421 31.793 21.6485L31.8374 21.6947L38.5782 26.1297L41.993 25.1596C42.5252 25.021 43.0574 25.3444 43.2348 25.8987C43.3678 26.4531 43.0574 27.0075 42.5252 27.1923L41.1398 27.5951C41.5989 28.7213 41.4776 30.2163 40.7093 31.3501C40.0884 32.1817 39.1571 32.8285 37.871 32.8285C36.9841 32.8285 35.9641 32.5051 34.811 31.7659L29.1345 27.8391C28.691 27.5157 28.558 26.8689 28.8684 26.4069C29.1788 25.9449 29.7997 25.8063 30.2432 26.1297L35.8754 30.0566C36.718 30.5648 38.2258 31.3501 39.0241 30.1952C39.5025 29.4702 39.4264 28.4786 39.1304 28.1792L38.7113 28.3011C38.6226 28.3473 38.5339 28.3473 38.4452 28.3473ZM33.9233 36.0613C33.3468 36.0613 32.7703 35.8765 32.2381 35.5531L26.1624 31.3953C25.719 31.0719 25.5859 30.4251 25.8964 29.9631C26.2068 29.5011 26.8277 29.3625 27.2711 29.6859L33.3025 33.8438C33.7016 34.121 34.2781 34.0748 34.6772 33.7052C35.0764 33.3356 35.6973 33.3356 36.0964 33.7976C36.4512 34.2134 36.4512 34.8601 36.0077 35.2759C35.4312 35.7841 34.6773 36.0613 33.9233 36.0613ZM29.9753 39.2049C29.3988 39.2049 28.8223 39.0663 28.3345 38.6968L25.4875 36.7562C25.3129 37.147 25.0896 37.4321 24.8766 37.6319C24.1227 38.4172 23.0583 38.4634 22.7922 38.4634C21.8532 38.4634 20.5833 37.9709 19.9662 36.7161C19.3511 37.055 18.7292 37.0798 18.5345 37.0798C17.3271 37.0798 15.5725 36.2654 15.3623 34.0634C14.874 34.2461 14.4516 34.2621 14.3211 34.2621C13.035 34.2621 11.128 33.3381 11.128 30.7972V30.0119C11.128 29.9387 11.128 29.531 11.2649 29.0197L7.44697 26.4537C7.00349 26.1303 6.87044 25.4836 7.13652 25.0216C7.40261 24.5596 8.06783 24.421 8.51131 24.6982L12.3666 27.2893C12.7879 26.9676 13.4105 26.6856 14.2767 26.6856C15.1193 26.6856 15.8733 26.9628 16.4054 27.5633C16.6845 27.854 16.8799 28.1778 17.0168 28.4939C17.3985 28.3012 17.8849 28.1635 18.4901 28.1635C19.3327 28.1635 20.0867 28.4407 20.6188 29.0412C21.0209 29.4601 21.2494 29.9478 21.3792 30.3817C21.744 30.2157 22.1966 30.1015 22.7479 30.1015C23.5905 30.1015 24.3444 30.3787 24.8766 30.9793C25.8079 31.9495 25.8079 33.2892 25.8079 33.474V34.4935L29.3988 36.9412C29.931 37.2646 30.6406 37.126 30.951 36.5716C31.2614 36.0634 31.8823 35.9248 32.3258 36.2482C32.8136 36.5716 32.9467 37.2184 32.6362 37.6804C32.0597 38.6506 31.0397 39.2049 29.9753 39.2049ZM19.6432 32.8807V31.4898C19.5988 31.0278 19.4658 30.2424 18.5345 30.2424C18.0023 30.2424 17.7806 30.4734 17.7362 30.5196C17.3814 30.8892 17.3814 31.4898 17.3814 31.4898V33.6149C17.3814 34.7698 18.1354 34.9546 18.5788 35.0008C18.9863 35.0008 19.4555 34.8397 19.5992 34.1138V33.4278C19.5992 33.3777 19.5992 33.1706 19.6432 32.8807ZM14.2767 28.7645C13.7446 28.7645 13.5228 28.9955 13.4785 29.0417C13.1237 29.4113 13.1237 30.0119 13.1237 30.0119V30.7972C13.1237 32.0446 14.0106 32.1832 14.2767 32.1832C14.7646 32.1832 15.3411 31.9522 15.3411 30.7972V30.0119C15.3854 29.5499 15.208 28.7645 14.2767 28.7645ZM21.994 32.4114C22.0383 32.3652 22.26 32.1342 22.7922 32.1342C23.7235 32.1342 23.8566 32.9658 23.9009 33.4278V34.9985C23.9009 36.1535 23.3244 36.3845 22.8366 36.3845C22.3931 36.3383 21.6392 36.1535 21.6392 34.9985V33.3816C21.6392 33.3816 21.6392 32.781 21.994 32.4114Z" fill="#6137A5"/>
</g>
<defs>
<clipPath id="clip0">
<rect width="72.4638" height="72.4638"  transform="scale(0.69)"/>
</clipPath>
</defs>
</svg>
