<svg width="24" height="24" viewBox="0 0 24 24" fill="none" xmlns="http://www.w3.org/2000/svg">
<rect width="24" height="24" fill="white"/>
<path d="M19.3014 6.75978H10.6041V5.30163C10.6041 5.10752 10.4466 4.95 10.2525 4.95H6.6329C6.43878 4.95 6.28127 5.10752 6.28127 5.30163V6.75978H4.82311C4.629 6.75978 4.47148 6.9173 4.47148 7.11141V18.5734C4.47148 18.7678 4.62903 18.925 4.82311 18.925H19.3014C19.4958 18.925 19.653 18.7678 19.653 18.5734V7.11141C19.653 6.91733 19.4958 6.75978 19.3014 6.75978ZM6.98453 5.65326H9.90083V14.6022H6.98453V5.65326ZM18.9497 18.2217H5.17475V7.46304H6.28127V14.9538C6.28127 15.1483 6.43882 15.3054 6.6329 15.3054H10.2525C10.4465 15.3054 10.6041 15.1483 10.6041 14.9538V7.46304H18.9497V18.2217Z" fill="#6137A5" stroke="#6137A5" stroke-width="0.1"/>
<path d="M12.3077 11.7946H17.248C17.4274 11.7946 17.5724 11.6492 17.5724 11.4701V9.27446C17.5724 9.09538 17.4274 8.95 17.248 8.95H12.3077C12.1285 8.95 11.9832 9.09534 11.9832 9.27446V11.4701C11.9832 11.6493 12.1285 11.7946 12.3077 11.7946ZM12.6321 9.59892H16.9235V11.1457H12.6321V9.59892Z" fill="#6137A5" stroke="#6137A5" stroke-width="0.1"/>
<path d="M12.3077 13.4417H12.8566C13.036 13.4417 13.181 13.2966 13.181 13.1172C13.181 12.9378 13.036 12.7928 12.8566 12.7928H12.3077C12.1286 12.7928 11.9832 12.9378 11.9832 13.1172C11.9832 13.2967 12.1286 13.4417 12.3077 13.4417Z" fill="#6137A5" stroke="#6137A5" stroke-width="0.1"/>
<path d="M15.0519 12.7928H14.503C14.3236 12.7928 14.1785 12.9378 14.1785 13.1172C14.1785 13.2966 14.3236 13.4417 14.503 13.4417H15.0519C15.2313 13.4417 15.3764 13.2966 15.3764 13.1172C15.3764 12.9378 15.2313 12.7928 15.0519 12.7928Z" fill="#6137A5" stroke="#6137A5" stroke-width="0.1"/>
<path d="M17.2472 12.7928H16.6983C16.5189 12.7928 16.3738 12.9378 16.3738 13.1172C16.3738 13.2966 16.5189 13.4417 16.6983 13.4417H17.2472C17.4266 13.4417 17.5717 13.2966 17.5717 13.1172C17.5717 12.9378 17.4266 12.7928 17.2472 12.7928Z" fill="#6137A5" stroke="#6137A5" stroke-width="0.1"/>
<path d="M12.3077 15.0882H12.8566C13.036 15.0882 13.181 14.9431 13.181 14.7637C13.181 14.5843 13.036 14.4393 12.8566 14.4393H12.3077C12.1286 14.4393 11.9832 14.5843 11.9832 14.7637C11.9832 14.9431 12.1286 15.0882 12.3077 15.0882Z" fill="#6137A5" stroke="#6137A5" stroke-width="0.1"/>
<path d="M15.0519 14.4393H14.503C14.3236 14.4393 14.1785 14.5843 14.1785 14.7637C14.1785 14.9431 14.3236 15.0882 14.503 15.0882H15.0519C15.2313 15.0882 15.3764 14.9431 15.3764 14.7637C15.3764 14.5843 15.2313 14.4393 15.0519 14.4393Z" fill="#6137A5" stroke="#6137A5" stroke-width="0.1"/>
<path d="M17.2472 14.4393H16.6983C16.5189 14.4393 16.3738 14.5843 16.3738 14.7637C16.3738 14.9431 16.5189 15.0882 16.6983 15.0882H17.2472C17.4266 15.0882 17.5717 14.9431 17.5717 14.7637C17.5717 14.5843 17.4266 14.4393 17.2472 14.4393Z" fill="#6137A5" stroke="#6137A5" stroke-width="0.1"/>
<path d="M12.8566 16.0857H12.3077C12.1286 16.0857 11.9832 16.2308 11.9832 16.4102C11.9832 16.5896 12.1286 16.7347 12.3077 16.7347H12.8566C13.036 16.7347 13.181 16.5896 13.181 16.4102C13.181 16.2308 13.036 16.0857 12.8566 16.0857Z" fill="#6137A5" stroke="#6137A5" stroke-width="0.1"/>
<path d="M15.0519 16.0857H14.503C14.3236 16.0857 14.1785 16.2308 14.1785 16.4102C14.1785 16.5896 14.3236 16.7347 14.503 16.7347H15.0519C15.2313 16.7347 15.3764 16.5896 15.3764 16.4102C15.3764 16.2308 15.2313 16.0857 15.0519 16.0857Z" fill="#6137A5" stroke="#6137A5" stroke-width="0.1"/>
<path d="M17.2472 16.0857H16.6983C16.5189 16.0857 16.3738 16.2308 16.3738 16.4102C16.3738 16.5896 16.5189 16.7347 16.6983 16.7347H17.2472C17.4266 16.7347 17.5717 16.5896 17.5717 16.4102C17.5717 16.2308 17.4266 16.0857 17.2472 16.0857Z" fill="#6137A5" stroke="#6137A5" stroke-width="0.1"/>
</svg>
