<svg width="51" height="51" viewBox="0 0 51 51" fill="none" xmlns="http://www.w3.org/2000/svg">
<g clip-path="url(#clip0)">
<path d="M25.1626 6.23047C14.3931 6.23047 5.63135 14.9922 5.63135 25.7617C5.63135 36.5313 14.3931 45.293 25.1626 45.293C35.9321 45.293 44.6938 36.5313 44.6938 25.7617C44.6938 14.9922 35.9321 6.23047 25.1626 6.23047ZM43.1313 25.7617C43.1313 28.1352 42.6642 30.4008 41.8243 32.4773L26.3415 25.4398L36.0907 11.5125C40.3681 14.8 43.1313 19.9633 43.1313 25.7617ZM25.9438 7.8125C29.1978 7.95234 32.2282 8.96328 34.8118 10.6148L25.9438 23.2836V7.8125ZM7.19385 25.7617C7.19385 16.1156 14.8345 8.22344 24.3813 7.8125V25.5148L14.2345 40.0109C9.95791 36.7234 7.19385 31.5609 7.19385 25.7617ZM25.1626 43.7305C21.6134 43.7305 18.3032 42.6914 15.5134 40.9086L25.4306 26.7414L41.1751 33.8984C38.2017 39.7273 32.1431 43.7305 25.1626 43.7305Z" fill="#6137A5"/>
</g>
<defs>
<clipPath id="clip0">
<rect width="72.4638" height="72.4638"  transform="translate(0.162598 0.761719) scale(0.69)"/>
</clipPath>
</defs>
</svg>
