<svg width="50" height="51" viewBox="0 0 50 51" fill="none" xmlns="http://www.w3.org/2000/svg">
<g clip-path="url(#clip0)">
<path d="M43.75 10.7656H6.25C5.81875 10.7656 5.46875 11.1156 5.46875 11.5469V34.9844C5.46875 35.4164 5.81875 35.7656 6.25 35.7656H24.2188V38.8906H17.1875C16.7563 38.8906 16.4063 39.2398 16.4063 39.6719C16.4063 40.1039 16.7563 40.4531 17.1875 40.4531H32.8125C33.2445 40.4531 33.5938 40.1039 33.5938 39.6719C33.5938 39.2398 33.2445 38.8906 32.8125 38.8906H25.7813V35.7656H43.75C44.182 35.7656 44.5313 35.4164 44.5313 34.9844V11.5469C44.5313 11.1156 44.182 10.7656 43.75 10.7656ZM42.9688 34.2031H7.03125V12.3281H42.9688V34.2031Z" fill="#6137A5"/>
<path d="M12.5 29.5156C12.9312 29.5156 13.2812 29.1664 13.2812 28.7344V24.0469C13.2812 23.6156 12.9312 23.2656 12.5 23.2656C12.0687 23.2656 11.7188 23.6156 11.7188 24.0469V28.7344C11.7188 29.1664 12.0687 29.5156 12.5 29.5156Z" fill="#6137A5"/>
<path d="M18.75 26.3906C19.1812 26.3906 19.5312 26.0406 19.5312 25.6094V20.9219C19.5312 20.4906 19.1812 20.1406 18.75 20.1406C18.3187 20.1406 17.9688 20.4906 17.9688 20.9219V25.6094C17.9688 26.0406 18.3187 26.3906 18.75 26.3906Z" fill="#6137A5"/>
<path d="M25 27.9531C25.4312 27.9531 25.7812 27.6039 25.7812 27.1719V24.0469C25.7812 23.6156 25.4312 23.2656 25 23.2656C24.5687 23.2656 24.2188 23.6156 24.2188 24.0469V27.1719C24.2188 27.6039 24.5687 27.9531 25 27.9531Z" fill="#6137A5"/>
<path d="M31.25 24.8281C31.682 24.8281 32.0312 24.4781 32.0312 24.0469V19.3594C32.0312 18.9281 31.682 18.5781 31.25 18.5781C30.818 18.5781 30.4688 18.9281 30.4688 19.3594V24.0469C30.4688 24.4781 30.818 24.8281 31.25 24.8281Z" fill="#6137A5"/>
<path d="M37.5 29.5156C37.932 29.5156 38.2813 29.1664 38.2813 28.7344V24.0469C38.2813 23.6156 37.932 23.2656 37.5 23.2656C37.068 23.2656 36.7188 23.6156 36.7188 24.0469V28.7344C36.7188 29.1664 37.068 29.5156 37.5 29.5156Z" fill="#6137A5"/>
</g>
<defs>
<clipPath id="clip0">
<rect width="72.4638" height="72.4638"  transform="translate(0 0.609375) scale(0.69)"/>
</clipPath>
</defs>
</svg>
