<?xml version="1.0" encoding="utf-8"?>
<!-- Generator: Adobe Illustrator 23.0.4, SVG Export Plug-In . SVG Version: 6.00 Build 0)  -->
<svg version="1.1" id="Layer_1" xmlns="http://www.w3.org/2000/svg" xmlns:xlink="http://www.w3.org/1999/xlink" x="0px" y="0px"
	 viewBox="0 0 757.5 208.2" style="enable-background:new 0 0 757.5 208.2;" xml:space="preserve">
<style type="text/css">
	.st0{fill:#FFFFFF;}
	.st1{fill-rule:evenodd;clip-rule:evenodd;fill:#FFFFFF;}
</style>
<path class="st0" d="M99.4,149.5c24.3,0.2,36.1-14.9,36.1-28c0-18.4-16.6-23.3-31.3-26.4c-13.3-3-20.8-4.4-20.8-10.7
	c0-5.8,4.9-10.5,15.2-10.5c9.3,0,15.8,3.7,19.9,10l15.8-8.6c-7.3-10.7-18.7-17-35.7-17c-20.8-0.2-34.1,12.6-34.1,26.4
	c0,18,15.7,22.9,30.6,25.9c11.2,2.4,21.7,4,21.7,11.2c0,6.1-5.6,11.4-16.4,11.4c-10.5,0-18-4.4-23.1-12.6l-16.8,9.1
	C67.9,142.7,80.5,149.5,99.4,149.5z"/>
<path class="st1" d="M170.1,167.1l10.5,21.1l52.8-127.9h-19.8L189.5,121L164,60.2h-20.1l36.2,82.9L170.1,167.1z"/>
<path class="st0" d="M249.1,147.7h18.7V99.6c0-15.4,9.6-24.8,22.2-24.8c14,0,21.2,9.1,21.2,23.4v49.5h18.9V96.6
	c0-23.8-13.5-38.2-35.5-38.2c-11.6,0-21,5.1-27,13.1V60.2h-18.6V147.7z"/>
<path class="st1" d="M444.5,44.6v103.1h-18.6v-12.1c-6.6,8.6-17.7,13.8-29.2,13.8c-22.2,0-43.6-17.7-43.6-45.5
	c0-28,20.8-45.5,43.8-45.5c11.5,0,22.6,5.1,29,13.1V20L444.5,44.6z M371.7,103.8c0,15.9,12.1,28.5,27.6,28.5
	c15.9,0,27.7-12.8,27.7-28.5c0-15.6-11.7-28.3-27.7-28.3C383.7,75.5,371.7,87.9,371.7,103.8z"/>
<path class="st0" d="M515.3,149.5c19.4,0,33.2-9.4,41-23.8l-15.4-8.6c-4.5,9.4-13.6,15.7-25.5,15.7c-15.2,0-25.7-8.9-28.2-22.4h72.5
	v-7.3c0-25.9-19.1-44.6-45-44.6c-25.7,0-45.5,20.1-45.5,45.8C469.1,129.7,487.7,149.5,515.3,149.5z M514.6,74.9
	c13.5,0,23.1,7,25.9,19.6H488C491.5,83,501.7,74.9,514.6,74.9z"/>
<path class="st0" d="M570.3,147.7h22.9l21.9-30.1l22.8,30.1h22.9L627,103.3l31.8-43h-22.2l-21.2,28.9l-21-28.9h-22.8l32,43
	L570.3,147.7z"/>
<rect x="678.5" y="129.1" class="st0" width="18.6" height="18.6"/>
</svg>
