<svg width="115" height="30" viewBox="0 0 115 30" fill="none" xmlns="http://www.w3.org/2000/svg">
<mask id="mask0" mask-type="alpha" maskUnits="userSpaceOnUse" x="0" y="0" width="115" height="30">
<rect width="115" height="30" fill="#C4C4C4"/>
</mask>
<g mask="url(#mask0)">
<path fill-rule="evenodd" clip-rule="evenodd" d="M65.8782 0L69.2219 4.41519V22.7586H65.8782V20.5956C64.6795 22.1316 62.6922 23.072 60.6103 23.072C56.6041 23.072 52.7557 19.9059 52.7557 14.9216C52.7557 9.9059 56.5095 6.7711 60.6418 6.7711C62.7237 6.7711 64.711 7.68019 65.8782 9.1222V0ZM56.0994 14.8902C56.0994 17.7429 58.276 19.9999 61.0834 19.9999C63.954 19.9999 66.0674 17.7115 66.0674 14.8902C66.0674 12.1003 63.954 9.81186 61.0834 9.81186C58.276 9.81186 56.0994 12.0376 56.0994 14.8902Z" fill="#100623"/>
<path d="M7.03439 23.0723C11.4191 23.1036 13.5325 20.4077 13.5325 18.0566C13.5325 14.7651 10.5358 13.8873 7.88609 13.3231L7.58938 13.2573C5.37711 12.7675 4.13231 12.4919 4.13231 11.4108C4.13231 10.3764 5.01555 9.52997 6.87667 9.52997C8.54852 9.52997 9.71566 10.1883 10.4727 11.3168L13.3117 9.78075C11.9869 7.86852 9.93647 6.74 6.87667 6.74C3.12289 6.70865 0.72552 8.99705 0.72552 11.4735C0.72552 14.7024 3.56451 15.5801 6.24578 16.113C6.41674 16.1502 6.5868 16.1862 6.75487 16.2219C8.57147 16.6069 10.1573 16.9429 10.1573 18.1193C10.1573 19.2165 9.14786 20.1569 7.19211 20.1569C5.29945 20.1569 3.94304 19.3732 3.02826 17.8999L0 19.53C1.35641 21.8497 3.6276 23.0723 7.03439 23.0723Z" fill="#100623"/>
<path d="M19.7634 26.2386L21.6465 30H21.6574L31.1838 7.08464H27.6193L23.2662 17.9624L18.6607 7.08464H15.0331L21.5628 21.9436L19.7634 26.2386Z" fill="#100623"/>
<path d="M37.38 22.7586H34.0048V7.08457H37.3485V9.12218C38.421 7.68018 40.1244 6.77108 42.2063 6.77108C46.1809 6.77108 48.6098 9.34162 48.6098 13.6049V22.7586H45.203V13.8871C45.203 11.3165 43.9097 9.68645 41.3862 9.68645C39.115 9.68645 37.38 11.3792 37.38 14.1379V22.7586Z" fill="#100623"/>
<path fill-rule="evenodd" clip-rule="evenodd" d="M89.3741 18.8087C87.9862 21.3792 85.4942 23.072 81.9927 23.072C77.0087 23.072 73.665 19.5297 73.665 14.9843C73.665 10.3761 77.2295 6.77108 81.8666 6.77108C86.5351 6.77108 89.9735 10.1253 89.9735 14.7648V16.0814H76.9141C77.3557 18.4952 79.2484 20.094 81.9927 20.094C84.1378 20.094 85.7781 18.9654 86.5982 17.2727L89.3741 18.8087ZM86.5351 13.2288C86.0304 10.9717 84.2955 9.7178 81.8666 9.7178C79.5323 9.7178 77.7027 11.1598 77.0718 13.2288H86.5351Z" fill="#100623"/>
<path d="M91.9067 22.7586H96.039L99.9821 17.3667L104.083 22.7586H108.215L102.127 14.7962L107.868 7.08457H103.862L100.045 12.257L96.2598 7.08457H92.1591L97.9317 14.7962L91.9067 22.7586Z" fill="#100623"/>
<path d="M114.545 19.3141H111.192V22.6466H114.545V19.3141Z" fill="#100623"/>
</g>
</svg>
