<svg width="50" height="51" viewBox="0 0 50 51" fill="none" xmlns="http://www.w3.org/2000/svg">
<g clip-path="url(#clip0)">
<path d="M9.375 33.6836H40.625C41.057 33.6836 41.4062 33.3344 41.4062 32.9023V12.5898C41.4062 12.1586 41.057 11.8086 40.625 11.8086H9.375C8.94375 11.8086 8.59375 12.1586 8.59375 12.5898V32.9023C8.59375 33.3344 8.94375 33.6836 9.375 33.6836ZM10.1562 13.3711H39.8437V32.1211H10.1562V13.3711Z" fill="white"/>
<path d="M43.75 36.8086H6.25C5.81875 36.8086 5.46875 37.1578 5.46875 37.5898C5.46875 38.0219 5.81875 38.3711 6.25 38.3711H43.75C44.182 38.3711 44.5312 38.0219 44.5312 37.5898C44.5312 37.1578 44.182 36.8086 43.75 36.8086Z" fill="white"/>
<path d="M19.0991 21.1012L24.9999 18.1504L30.9007 21.1004C31.0124 21.1566 31.1319 21.1832 31.2491 21.1832C31.5358 21.1832 31.8116 21.0254 31.9491 20.7512C32.1421 20.3652 31.9858 19.8957 31.5999 19.7027L25.3499 16.5777C25.1303 16.4676 24.871 16.4676 24.6507 16.5777L18.4007 19.7027C18.0147 19.8957 17.8585 20.3652 18.0514 20.7512C18.2444 21.1371 18.7124 21.2941 19.0991 21.1012Z" fill="white"/>
<path d="M31.25 27.4336H30.4687V23.5273C30.4687 23.0961 30.1195 22.7461 29.6875 22.7461C29.2555 22.7461 28.9062 23.0961 28.9062 23.5273V27.4336H25.7812V21.9648C25.7812 21.5336 25.4312 21.1836 25 21.1836C24.5687 21.1836 24.2187 21.5336 24.2187 21.9648V27.4336H21.0937V23.5273C21.0937 23.0961 20.7437 22.7461 20.3125 22.7461C19.8812 22.7461 19.5312 23.0961 19.5312 23.5273V27.4336H18.75C18.3187 27.4336 17.9688 27.7828 17.9688 28.2148C17.9688 28.6469 18.3187 28.9961 18.75 28.9961H31.25C31.682 28.9961 32.0312 28.6469 32.0312 28.2148C32.0312 27.7828 31.682 27.4336 31.25 27.4336Z" fill="white"/>
</g>
<defs>
<clipPath id="clip0">
<rect width="72.4638" height="72.4638" fill="white" transform="translate(0 0.0898438) scale(0.69)"/>
</clipPath>
</defs>
</svg>
