<svg width="50" height="51" viewBox="0 0 50 51" fill="none" xmlns="http://www.w3.org/2000/svg">
<g clip-path="url(#clip0)">
<path d="M39.0625 5.99219H10.9375C10.5063 5.99219 10.1562 6.34219 10.1562 6.77344V44.2734C10.1562 44.7055 10.5063 45.0547 10.9375 45.0547H39.0625C39.4945 45.0547 39.8437 44.7055 39.8437 44.2734V6.77344C39.8437 6.34219 39.4945 5.99219 39.0625 5.99219ZM38.2812 43.4922H11.7187V7.55469H38.2812V43.4922Z" fill="white"/>
<path d="M17.1875 13.8047H32.8125C33.2445 13.8047 33.5938 13.4547 33.5938 13.0234C33.5938 12.5922 33.2445 12.2422 32.8125 12.2422H17.1875C16.7563 12.2422 16.4062 12.5922 16.4062 13.0234C16.4062 13.4547 16.7563 13.8047 17.1875 13.8047Z" fill="white"/>
<path d="M17.1875 20.0547H32.8125C33.2445 20.0547 33.5938 19.7047 33.5938 19.2734C33.5938 18.8422 33.2445 18.4922 32.8125 18.4922H17.1875C16.7563 18.4922 16.4062 18.8422 16.4062 19.2734C16.4062 19.7047 16.7563 20.0547 17.1875 20.0547Z" fill="white"/>
<path d="M17.1875 26.3047H32.8125C33.2445 26.3047 33.5938 25.9547 33.5938 25.5234C33.5938 25.0922 33.2445 24.7422 32.8125 24.7422H17.1875C16.7563 24.7422 16.4062 25.0922 16.4062 25.5234C16.4062 25.9547 16.7563 26.3047 17.1875 26.3047Z" fill="white"/>
<path d="M32.8125 35.6797H25C24.5688 35.6797 24.2188 36.0289 24.2188 36.4609C24.2188 36.893 24.5688 37.2422 25 37.2422H32.8125C33.2445 37.2422 33.5937 36.893 33.5937 36.4609C33.5937 36.0289 33.2445 35.6797 32.8125 35.6797Z" fill="white"/>
<path d="M16.6354 38.576C16.7877 38.7283 16.9877 38.8049 17.1877 38.8049C17.3877 38.8049 17.5877 38.7283 17.74 38.576L18.7502 37.5658L19.7604 38.576C19.9127 38.7283 20.1127 38.8049 20.3127 38.8049C20.5127 38.8049 20.7127 38.7283 20.865 38.576C21.1705 38.2705 21.1705 37.7768 20.865 37.4713L19.8549 36.4611L20.865 35.451C21.1705 35.1455 21.1705 34.6518 20.865 34.3463C20.5596 34.0408 20.0658 34.0408 19.7604 34.3463L18.7502 35.3564L17.74 34.3463C17.4346 34.0408 16.9408 34.0408 16.6354 34.3463C16.3299 34.6518 16.3299 35.1455 16.6354 35.451L17.6455 36.4611L16.6354 37.4713C16.3299 37.7768 16.3299 38.2705 16.6354 38.576Z" fill="white"/>
</g>
<defs>
<clipPath id="clip0">
<rect width="72.4638" height="72.4638" fill="white" transform="translate(0 0.523438) scale(0.69)"/>
</clipPath>
</defs>
</svg>
