<svg width="50" height="51" viewBox="0 0 50 51" fill="none" xmlns="http://www.w3.org/2000/svg">
<g clip-path="url(#clip0)">
<path d="M10.9375 35.4414C11.8004 35.4414 12.5 34.7419 12.5 33.8789C12.5 33.016 11.8004 32.3164 10.9375 32.3164C10.0746 32.3164 9.375 33.016 9.375 33.8789C9.375 34.7419 10.0746 35.4414 10.9375 35.4414Z" fill="white"/>
<path d="M10.9375 28.4102C11.3688 28.4102 11.7188 28.0609 11.7188 27.6289V18.2539C11.7188 17.8227 11.3688 17.4727 10.9375 17.4727C10.5063 17.4727 10.1562 17.8227 10.1562 18.2539V27.6289C10.1562 28.0609 10.5063 28.4102 10.9375 28.4102Z" fill="white"/>
<path d="M25 11.2227H15.625H6.25C5.81875 11.2227 5.46875 11.5727 5.46875 12.0039V40.1289C5.46875 40.5609 5.81875 40.9102 6.25 40.9102H15.625H25C25.4313 40.9102 25.7813 40.5609 25.7813 40.1289V12.0039C25.7813 11.5727 25.4313 11.2227 25 11.2227ZM7.03125 12.7852H14.8438V39.3477H7.03125V12.7852ZM24.2188 39.3477H16.4063V12.7852H24.2188V39.3477Z" fill="white"/>
<path d="M20.3125 35.4414C21.1754 35.4414 21.875 34.7419 21.875 33.8789C21.875 33.016 21.1754 32.3164 20.3125 32.3164C19.4496 32.3164 18.75 33.016 18.75 33.8789C18.75 34.7419 19.4496 35.4414 20.3125 35.4414Z" fill="white"/>
<path d="M20.3125 28.4102C20.7438 28.4102 21.0938 28.0609 21.0938 27.6289V18.2539C21.0938 17.8227 20.7438 17.4727 20.3125 17.4727C19.8813 17.4727 19.5312 17.8227 19.5312 18.2539V27.6289C19.5312 28.0609 19.8813 28.4102 20.3125 28.4102Z" fill="white"/>
<path d="M44.5008 37.2477L36.7054 10.2242C36.6484 10.0258 36.514 9.85705 36.332 9.75705C36.1515 9.65705 35.9375 9.63362 35.7375 9.69065L26.7297 12.2891C26.3156 12.4086 26.0757 12.8422 26.1953 13.2563L33.9906 40.2797C34.0476 40.4789 34.182 40.6469 34.364 40.7469C34.4804 40.8117 34.6101 40.8446 34.7414 40.8446C34.814 40.8446 34.8875 40.8344 34.9578 40.8141L43.9656 38.2156C44.3812 38.0953 44.6203 37.6633 44.5008 37.2477ZM35.2758 39.0961L27.914 13.5742L35.4203 11.4086L42.782 36.9305L35.2758 39.0961Z" fill="white"/>
<path d="M37.5142 34.3213C38.3771 34.3213 39.0767 33.6217 39.0767 32.7588C39.0767 31.8958 38.3771 31.1963 37.5142 31.1963C36.6512 31.1963 35.9517 31.8958 35.9517 32.7588C35.9517 33.6217 36.6512 34.3213 37.5142 34.3213Z" fill="white"/>
<path d="M32.9665 16.9956C32.5524 17.1151 32.3126 17.5487 32.4321 17.9628L35.0305 26.9706C35.1298 27.3128 35.4415 27.5354 35.7813 27.5354C35.8524 27.5354 35.9258 27.5253 35.9977 27.5049C36.4118 27.3854 36.6516 26.9526 36.5321 26.5378L33.9337 17.5299C33.8141 17.1159 33.386 16.876 32.9665 16.9956Z" fill="white"/>
</g>
<defs>
<clipPath id="clip0">
<rect width="72.4638" height="72.4638" fill="white" transform="translate(0 0.285156) scale(0.69)"/>
</clipPath>
</defs>
</svg>
