<svg width="24" height="24" viewBox="0 0 24 24" fill="none" xmlns="http://www.w3.org/2000/svg">
<path d="M17.2301 10.08V10.13H17.2801H19.2001C19.4374 10.13 19.6301 10.3226 19.6301 10.56V21.12C19.6301 21.3573 19.4374 21.55 19.2001 21.55H4.80007C4.56272 21.55 4.37007 21.3573 4.37007 21.12V10.56C4.37007 10.3226 4.56272 10.13 4.80007 10.13H6.72007H6.77007V10.08V7.67999C6.77007 4.79688 9.11601 2.44999 12.0001 2.44999C14.8841 2.44999 17.2301 4.79688 17.2301 7.67999V10.08ZM16.3201 10.13H16.3701V10.08V7.67999C16.3701 5.27062 14.4094 3.30999 12.0001 3.30999C9.59069 3.30999 7.63007 5.27062 7.63007 7.67999V10.08V10.13H7.68007H16.3201ZM18.7201 20.69H18.7701V20.64V11.04V10.99H18.7201H5.28007H5.23007V11.04V20.64V20.69H5.28007H18.7201Z" fill="white" stroke="white" stroke-width="0.1"/>
<path d="M11.5701 17.711V17.6702L11.5301 17.662C10.4585 17.444 9.6501 16.4954 9.6501 15.36C9.6501 14.0638 10.7048 13.01 12.0001 13.01C13.2954 13.01 14.3501 14.0638 14.3501 15.36C14.3501 16.4954 13.5417 17.444 12.4701 17.662L12.4301 17.6702V17.711V19.2C12.4301 19.4373 12.2374 19.63 12.0001 19.63C11.7628 19.63 11.5701 19.4373 11.5701 19.2V17.711ZM10.5101 15.36C10.5101 16.1815 11.1786 16.85 12.0001 16.85C12.8216 16.85 13.4901 16.1815 13.4901 15.36C13.4901 14.5385 12.8216 13.87 12.0001 13.87C11.1786 13.87 10.5101 14.5385 10.5101 15.36Z" fill="white" stroke="white" stroke-width="0.1"/>
</svg>
