<svg width="51" height="51" viewBox="0 0 51 51" fill="none" xmlns="http://www.w3.org/2000/svg">
<g clip-path="url(#clip0)">
<path d="M40.0078 32.793V14.043C40.0078 13.6117 39.6586 13.2617 39.2266 13.2617H6.41406C5.98281 13.2617 5.63281 13.6117 5.63281 14.043V32.793C5.63281 33.225 5.98281 33.5742 6.41406 33.5742H39.2266C39.6586 33.5742 40.0078 33.225 40.0078 32.793ZM38.4453 32.0117H7.19531V14.8242H38.4453V32.0117Z" fill="white"/>
<path d="M43.9141 16.3867C43.482 16.3867 43.1328 16.7367 43.1328 17.168V36.6992H9.53906C9.10781 36.6992 8.75781 37.0484 8.75781 37.4805C8.75781 37.9125 9.10781 38.2617 9.53906 38.2617H43.9141C44.3461 38.2617 44.6953 37.9125 44.6953 37.4805V17.168C44.6953 16.7367 44.3461 16.3867 43.9141 16.3867Z" fill="white"/>
<path d="M22.8203 28.8867C25.8359 28.8867 28.2891 26.4336 28.2891 23.418C28.2891 20.4023 25.8359 17.9492 22.8203 17.9492C19.8047 17.9492 17.3516 20.4023 17.3516 23.418C17.3516 26.4336 19.8047 28.8867 22.8203 28.8867ZM22.8203 19.5117C24.9742 19.5117 26.7266 21.2641 26.7266 23.418C26.7266 25.5719 24.9742 27.3242 22.8203 27.3242C20.6664 27.3242 18.9141 25.5719 18.9141 23.418C18.9141 21.2641 20.6664 19.5117 22.8203 19.5117Z" fill="white"/>
<path d="M11.1016 25.7615C11.532 25.7615 11.8828 26.1123 11.8828 26.5428C11.8828 26.9748 12.2328 27.324 12.6641 27.324H14.2266C14.6578 27.324 15.0078 26.9748 15.0078 26.5428C15.0078 26.1115 14.6578 25.7615 14.2266 25.7615H13.3117C13.0758 25.0967 12.5477 24.5686 11.8828 24.3326V22.5021C12.5477 22.2662 13.0758 21.7381 13.3117 21.0732H14.2266C14.6578 21.0732 15.0078 20.7232 15.0078 20.292C15.0078 19.8607 14.6578 19.5107 14.2266 19.5107H12.6641C12.2328 19.5107 11.8828 19.8607 11.8828 20.292C11.8828 20.7225 11.532 21.0732 11.1016 21.0732C10.6703 21.0732 10.3203 21.4232 10.3203 21.8545V24.9795C10.3203 25.4115 10.6703 25.7615 11.1016 25.7615Z" fill="white"/>
<path d="M32.3289 25.7617H31.4141C30.982 25.7617 30.6328 26.1117 30.6328 26.543C30.6328 26.975 30.982 27.3242 31.4141 27.3242H32.9766C33.4086 27.3242 33.7578 26.975 33.7578 26.543C33.7578 26.1125 34.1078 25.7617 34.5391 25.7617C34.9711 25.7617 35.3203 25.4117 35.3203 24.9805V21.8555C35.3203 21.4242 34.9711 21.0742 34.5391 21.0742C34.1078 21.0742 33.7578 20.7234 33.7578 20.293C33.7578 19.8617 33.4086 19.5117 32.9766 19.5117H31.4141C30.982 19.5117 30.6328 19.8617 30.6328 20.293C30.6328 20.7242 30.982 21.0742 31.4141 21.0742H32.3289C32.5648 21.7391 33.093 22.2672 33.7578 22.5031V24.3336C33.0922 24.5688 32.5648 25.0969 32.3289 25.7617Z" fill="white"/>
</g>
<defs>
<clipPath id="clip0">
<rect width="72.4638" height="72.4638" fill="white" transform="translate(0.164062 0.761719) scale(0.69)"/>
</clipPath>
</defs>
</svg>
