<svg width="50" height="50" viewBox="0 0 50 50" fill="none" xmlns="http://www.w3.org/2000/svg">
<g clip-path="url(#clip0)">
<path d="M40.625 5.46875H9.375C7.22109 5.46875 5.46875 7.22109 5.46875 9.375V18.75C5.46875 19.1812 5.81875 19.5312 6.25 19.5312H11.7187V43.75C11.7187 44.182 12.0687 44.5312 12.5 44.5312H43.75C44.182 44.5312 44.5312 44.182 44.5312 43.75V9.375C44.5312 7.22109 42.7789 5.46875 40.625 5.46875ZM7.03125 9.375C7.03125 8.08281 8.08281 7.03125 9.375 7.03125C10.6672 7.03125 11.7187 8.08281 11.7187 9.375V17.9687H7.03125V9.375ZM42.9687 42.9687H13.2812V9.375C13.2812 8.49219 12.9758 7.68594 12.4805 7.03125H40.625C41.9172 7.03125 42.9687 8.08281 42.9687 9.375V42.9687Z" fill="white"/>
<path d="M20.3125 13.2813H28.125C28.557 13.2813 28.9062 12.9313 28.9062 12.5C28.9062 12.0688 28.557 11.7188 28.125 11.7188H20.3125C19.8813 11.7188 19.5312 12.0688 19.5312 12.5C19.5312 12.9313 19.8813 13.2813 20.3125 13.2813Z" fill="white"/>
<path d="M20.3125 19.5313H28.125C28.557 19.5313 28.9062 19.1813 28.9062 18.75C28.9062 18.3188 28.557 17.9688 28.125 17.9688H20.3125C19.8813 17.9688 19.5312 18.3188 19.5312 18.75C19.5312 19.1813 19.8813 19.5313 20.3125 19.5313Z" fill="white"/>
<path d="M20.3125 25.7813H28.125C28.557 25.7813 28.9062 25.4313 28.9062 25C28.9062 24.5688 28.557 24.2188 28.125 24.2188H20.3125C19.8813 24.2188 19.5312 24.5688 19.5312 25C19.5312 25.4313 19.8813 25.7813 20.3125 25.7813Z" fill="white"/>
<path d="M34.375 13.2813H35.9375C36.3695 13.2813 36.7188 12.9313 36.7188 12.5C36.7188 12.0688 36.3695 11.7188 35.9375 11.7188H34.375C33.943 11.7188 33.5938 12.0688 33.5938 12.5C33.5938 12.9313 33.943 13.2813 34.375 13.2813Z" fill="white"/>
<path d="M34.375 19.5313H35.9375C36.3695 19.5313 36.7188 19.1813 36.7188 18.75C36.7188 18.3188 36.3695 17.9688 35.9375 17.9688H34.375C33.943 17.9688 33.5938 18.3188 33.5938 18.75C33.5938 19.1813 33.943 19.5313 34.375 19.5313Z" fill="white"/>
<path d="M34.375 25.7813H35.9375C36.3695 25.7813 36.7188 25.4313 36.7188 25C36.7188 24.5688 36.3695 24.2188 35.9375 24.2188H34.375C33.943 24.2188 33.5938 24.5688 33.5938 25C33.5938 25.4313 33.943 25.7813 34.375 25.7813Z" fill="white"/>
<path d="M35.9375 36.7188H31.25C30.818 36.7188 30.4688 37.068 30.4688 37.5C30.4688 37.932 30.818 38.2813 31.25 38.2813H35.9375C36.3695 38.2813 36.7187 37.932 36.7187 37.5C36.7187 37.068 36.3695 36.7188 35.9375 36.7188Z" fill="white"/>
<path d="M37.5 30.4688H18.75C18.3187 30.4688 17.9688 30.818 17.9688 31.25C17.9688 31.682 18.3187 32.0312 18.75 32.0312H37.5C37.932 32.0312 38.2812 31.682 38.2812 31.25C38.2812 30.818 37.932 30.4688 37.5 30.4688Z" fill="white"/>
</g>
<defs>
<clipPath id="clip0">
<rect width="72.4638" height="72.4638" fill="white" transform="scale(0.69)"/>
</clipPath>
</defs>
</svg>
