<svg width="51" height="50" viewBox="0 0 51 50" fill="none" xmlns="http://www.w3.org/2000/svg">
<g clip-path="url(#clip0)">
<path d="M6.4126 16.4062H20.4751C20.9063 16.4062 21.2563 16.0562 21.2563 15.625V9.375C21.2563 8.94375 20.9063 8.59375 20.4751 8.59375H6.4126C5.98135 8.59375 5.63135 8.94375 5.63135 9.375V15.625C5.63135 16.0562 5.98135 16.4062 6.4126 16.4062ZM7.19385 10.1562H19.6938V14.8437H7.19385V10.1562Z" fill="#100623"/>
<path d="M6.4126 28.9062H26.7251C27.1571 28.9062 27.5063 28.557 27.5063 28.125V21.875C27.5063 21.4437 27.1571 21.0938 26.7251 21.0938H6.4126C5.98135 21.0938 5.63135 21.4437 5.63135 21.875V28.125C5.63135 28.557 5.98135 28.9062 6.4126 28.9062ZM7.19385 22.6562H25.9438V27.3437H7.19385V22.6562Z" fill="#100623"/>
<path d="M43.9126 33.5938H6.4126C5.98135 33.5938 5.63135 33.943 5.63135 34.375V40.625C5.63135 41.057 5.98135 41.4063 6.4126 41.4063H43.9126C44.3446 41.4063 44.6938 41.057 44.6938 40.625V34.375C44.6938 33.943 44.3446 33.5938 43.9126 33.5938ZM43.1313 39.8438H7.19385V35.1563H43.1313V39.8438Z" fill="#100623"/>
</g>
<defs>
<clipPath id="clip0">
<rect width="72.4638" height="72.4638" transform="translate(0.162598) scale(0.69)"/>
</clipPath>
</defs>
</svg>
