<svg width="50" height="51" viewBox="0 0 50 51" fill="none" xmlns="http://www.w3.org/2000/svg">
<g clip-path="url(#clip0)">
<path d="M43.75 15.3672H33.5937V11.4609C33.5937 9.30703 31.8414 7.55469 29.6875 7.55469H20.3125C18.1586 7.55469 16.4062 9.30703 16.4062 11.4609V15.3672H6.25C5.81875 15.3672 5.46875 15.7172 5.46875 16.1484V42.7109C5.46875 43.143 5.81875 43.4922 6.25 43.4922H43.75C44.182 43.4922 44.5312 43.143 44.5312 42.7109V16.1484C44.5312 15.7172 44.182 15.3672 43.75 15.3672ZM17.9687 11.4609C17.9687 10.1687 19.0203 9.11719 20.3125 9.11719H29.6875C30.9797 9.11719 32.0312 10.1687 32.0312 11.4609V15.3672H17.9687V11.4609ZM42.9687 16.9297V27.8672H30.4687V25.5234C30.4687 25.0922 30.1195 24.7422 29.6875 24.7422H20.3125C19.8812 24.7422 19.5312 25.0922 19.5312 25.5234V27.8672H7.03125V16.9297H42.9687ZM21.0937 26.3047H28.9062V30.9922H21.0937V26.3047ZM7.03125 41.9297V29.4297H19.5312V31.7734C19.5312 32.2055 19.8812 32.5547 20.3125 32.5547H29.6875C30.1195 32.5547 30.4687 32.2055 30.4687 31.7734V29.4297H42.9687V41.9297H7.03125Z" fill="#100623"/>
</g>
<defs>
<clipPath id="clip0">
<rect width="72.4638" height="72.4638" transform="translate(0 0.523438) scale(0.69)"/>
</clipPath>
</defs>
</svg>
