<svg width="50" height="51" viewBox="0 0 50 51" fill="none" xmlns="http://www.w3.org/2000/svg">
<g clip-path="url(#clip0)">
<path d="M39.0625 5.73828H10.9375C10.5063 5.73828 10.1562 6.08828 10.1562 6.51953V44.0195C10.1562 44.4516 10.5063 44.8008 10.9375 44.8008H39.0625C39.4945 44.8008 39.8437 44.4516 39.8437 44.0195V6.51953C39.8437 6.08828 39.4945 5.73828 39.0625 5.73828ZM38.2812 7.30078V18.2383H11.7187V7.30078H38.2812ZM11.7187 43.2383V19.8008H38.2812V43.2383H11.7187Z" fill="#100623"/>
<path d="M29.6875 13.5508H32.8125C33.2445 13.5508 33.5937 13.2008 33.5937 12.7695C33.5937 12.3383 33.2445 11.9883 32.8125 11.9883H29.6875C29.2555 11.9883 28.9062 12.3383 28.9062 12.7695C28.9062 13.2008 29.2555 13.5508 29.6875 13.5508Z" fill="#100623"/>
<path d="M26.5625 24.4883H23.4375C23.0063 24.4883 22.6562 24.8383 22.6562 25.2695V28.3945C22.6562 28.8266 23.0063 29.1758 23.4375 29.1758H26.5625C26.9945 29.1758 27.3438 28.8266 27.3438 28.3945V25.2695C27.3438 24.8383 26.9945 24.4883 26.5625 24.4883ZM25.7813 27.6133H24.2188V26.0508H25.7813V27.6133Z" fill="#100623"/>
<path d="M18.75 24.4883H15.625C15.1938 24.4883 14.8438 24.8383 14.8438 25.2695V28.3945C14.8438 28.8266 15.1938 29.1758 15.625 29.1758H18.75C19.1812 29.1758 19.5312 28.8266 19.5312 28.3945V25.2695C19.5312 24.8383 19.1812 24.4883 18.75 24.4883ZM17.9687 27.6133H16.4062V26.0508H17.9687V27.6133Z" fill="#100623"/>
<path d="M34.375 24.4883H31.25C30.818 24.4883 30.4688 24.8383 30.4688 25.2695V28.3945C30.4688 28.8266 30.818 29.1758 31.25 29.1758H34.375C34.807 29.1758 35.1562 28.8266 35.1562 28.3945V25.2695C35.1562 24.8383 34.807 24.4883 34.375 24.4883ZM33.5937 27.6133H32.0312V26.0508H33.5937V27.6133Z" fill="#100623"/>
<path d="M18.75 33.8633H15.625C15.1938 33.8633 14.8438 34.2125 14.8438 34.6445V37.7695C14.8438 38.2016 15.1938 38.5508 15.625 38.5508H18.75C19.1812 38.5508 19.5312 38.2016 19.5312 37.7695V34.6445C19.5312 34.2125 19.1812 33.8633 18.75 33.8633ZM17.9687 36.9883H16.4062V35.4258H17.9687V36.9883Z" fill="#100623"/>
<path d="M26.5625 33.8633H23.4375C23.0063 33.8633 22.6562 34.2125 22.6562 34.6445V37.7695C22.6562 38.2016 23.0063 38.5508 23.4375 38.5508H26.5625C26.9945 38.5508 27.3438 38.2016 27.3438 37.7695V34.6445C27.3438 34.2125 26.9945 33.8633 26.5625 33.8633ZM25.7813 36.9883H24.2188V35.4258H25.7813V36.9883Z" fill="#100623"/>
<path d="M34.375 33.8633H31.25C30.818 33.8633 30.4688 34.2125 30.4688 34.6445V37.7695C30.4688 38.2016 30.818 38.5508 31.25 38.5508H34.375C34.807 38.5508 35.1562 38.2016 35.1562 37.7695V34.6445C35.1562 34.2125 34.807 33.8633 34.375 33.8633ZM33.5937 36.9883H32.0312V35.4258H33.5937V36.9883Z" fill="#100623"/>
</g>
<defs>
<clipPath id="clip0">
<rect width="72.4638" height="72.4638" transform="translate(0 0.269531) scale(0.69)"/>
</clipPath>
</defs>
</svg>
