<svg width="50" height="51" viewBox="0 0 50 51" fill="none" xmlns="http://www.w3.org/2000/svg">
<g clip-path="url(#clip0)">
<path d="M43.75 43.7305H42.9687V10.1367C42.9687 9.76406 42.7055 9.44375 42.3406 9.37109C41.968 9.29844 41.6086 9.49297 41.4664 9.83672L34.1023 27.5102L28.6773 22.0852C28.4953 21.9031 28.2359 21.8234 27.982 21.8695C27.7289 21.9172 27.5148 22.0852 27.4109 22.3203L21.5719 35.457L14.55 29.8398C14.3703 29.6961 14.1359 29.6383 13.9109 29.6836C13.6852 29.7289 13.4906 29.8695 13.3789 30.0711L7.03125 41.4977V7.01172C7.03125 6.58047 6.68125 6.23047 6.25 6.23047C5.81875 6.23047 5.46875 6.58047 5.46875 7.01172V44.5117C5.46875 44.5469 5.48438 44.5773 5.48906 44.6109C5.49609 44.6656 5.50312 44.7188 5.52109 44.7695C5.5375 44.818 5.5625 44.8578 5.5875 44.9008C5.6125 44.9445 5.63672 44.9859 5.67031 45.0242C5.70625 45.0648 5.74922 45.0961 5.79297 45.1289C5.82031 45.1492 5.83906 45.1773 5.87031 45.1945C5.88672 45.2039 5.90391 45.207 5.92031 45.2141C5.93984 45.2242 5.96016 45.2305 5.98047 45.2383C6.06953 45.2719 6.15938 45.293 6.24922 45.293H43.7492C44.1813 45.293 44.5305 44.9438 44.5305 44.5117C44.5305 44.0797 44.182 43.7305 43.75 43.7305ZM14.2961 31.6375L21.3867 37.3102C21.5766 37.4602 21.825 37.5164 22.0594 37.4586C22.2937 37.4008 22.4898 37.2383 22.5883 37.0172L28.3766 23.9945L33.8227 29.4398C34.007 29.6234 34.2719 29.7039 34.5266 29.6539C34.782 29.6031 34.9961 29.4281 35.0961 29.1875L41.4062 14.043V43.7305H7.57734L14.2961 31.6375Z" fill="#100623"/>
</g>
<defs>
<clipPath id="clip0">
<rect width="72.4638" height="72.4638" transform="translate(0 0.761719) scale(0.69)"/>
</clipPath>
</defs>
</svg>
