<svg width="24" height="24" viewBox="0 0 24 24" fill="none" xmlns="http://www.w3.org/2000/svg">
<rect width="24" height="24" />
<path d="M12.2197 13.4411L18.7141 8.02881V16.3618H5.28472V8.02881L11.7792 13.4411L11.7792 13.4411C11.8429 13.4941 11.9211 13.5206 11.9994 13.5206C12.0778 13.5206 12.1559 13.4941 12.2196 13.4411L12.2197 13.4411ZM19.0582 6.95H4.9406C4.75063 6.95 4.59648 7.10415 4.59648 7.29412V16.7059C4.59648 16.8962 4.75067 17.05 4.9406 17.05H19.0582C19.2485 17.05 19.4024 16.8961 19.4024 16.7059V7.29412C19.4024 7.10418 19.2485 6.95 19.0582 6.95ZM11.9994 12.7284L5.89106 7.63824H18.1075L11.9994 12.7284Z" fill="#100623" stroke="#100623" stroke-width="0.1"/>
</svg>
