<svg width="24" height="24" viewBox="0 0 24 24" fill="none" xmlns="http://www.w3.org/2000/svg">
<rect width="24" height="24" />
<path d="M15.2845 7.19712C15.2845 8.90478 13.895 10.2942 12.1873 10.2942C10.4797 10.2942 9.09023 8.90478 9.09023 7.19712C9.09023 5.48945 10.4797 4.1 12.1873 4.1C13.895 4.1 15.2845 5.48945 15.2845 7.19712ZM14.2056 7.19712C14.2056 6.08428 13.3002 5.17885 12.1873 5.17885C11.0745 5.17885 10.1691 6.08428 10.1691 7.19712C10.1691 8.30995 11.0745 9.21538 12.1873 9.21538C13.3002 9.21538 14.2056 8.30995 14.2056 7.19712Z" fill="#100623" stroke-width="0.2"/>
<path d="M17.9428 19.4459H18.0428V19.3459V14.87C18.0428 13.7571 17.1373 12.8517 16.0245 12.8517H8.35141C7.23858 12.8517 6.33314 13.7571 6.33314 14.87V19.3459V19.4459H6.43314H17.9428ZM8.35141 11.7729H16.0245C17.7322 11.7729 19.1216 13.1623 19.1216 14.87V19.9854C19.1216 20.2837 18.88 20.5248 18.5822 20.5248H5.79372C5.49592 20.5248 5.2543 20.2837 5.2543 19.9854V14.87C5.2543 13.1623 6.64375 11.7729 8.35141 11.7729Z" fill="#100623" stroke-width="0.2"/>
</svg>
