<svg width="50" height="51" viewBox="0 0 50 51" fill="none" xmlns="http://www.w3.org/2000/svg">
<g clip-path="url(#clip0)">
<path d="M39.0625 5.99219H10.9375C10.5063 5.99219 10.1562 6.34219 10.1562 6.77344V44.2734C10.1562 44.7055 10.5063 45.0547 10.9375 45.0547H39.0625C39.4945 45.0547 39.8438 44.7055 39.8438 44.2734V6.77344C39.8438 6.34219 39.4945 5.99219 39.0625 5.99219ZM38.2813 43.4922H11.7188V7.55469H38.2813V43.4922Z" fill="#100623"/>
<path d="M17.9687 27.8672C18.4 27.8672 18.75 27.518 18.75 27.0859V22.3984C18.75 21.9672 18.4 21.6172 17.9687 21.6172C17.5375 21.6172 17.1875 21.9672 17.1875 22.3984V27.0859C17.1875 27.518 17.5375 27.8672 17.9687 27.8672Z" fill="#100623"/>
<path d="M22.6563 27.8672C23.0875 27.8672 23.4375 27.518 23.4375 27.0859V17.7109C23.4375 17.2797 23.0875 16.9297 22.6563 16.9297C22.225 16.9297 21.875 17.2797 21.875 17.7109V27.0859C21.875 27.518 22.225 27.8672 22.6563 27.8672Z" fill="#100623"/>
<path d="M27.3437 27.8672C27.7758 27.8672 28.125 27.518 28.125 27.0859V22.3984C28.125 21.9672 27.7758 21.6172 27.3437 21.6172C26.9117 21.6172 26.5625 21.9672 26.5625 22.3984V27.0859C26.5625 27.518 26.9117 27.8672 27.3437 27.8672Z" fill="#100623"/>
<path d="M32.0313 27.8672C32.4633 27.8672 32.8125 27.518 32.8125 27.0859V13.0234C32.8125 12.5922 32.4633 12.2422 32.0313 12.2422C31.5992 12.2422 31.25 12.5922 31.25 13.0234V27.0859C31.25 27.518 31.5992 27.8672 32.0313 27.8672Z" fill="#100623"/>
<path d="M17.1875 34.248H32.8125C33.2445 34.248 33.5937 33.8988 33.5937 33.4668C33.5937 33.0348 33.2445 32.6855 32.8125 32.6855H17.1875C16.7563 32.6855 16.4062 33.0348 16.4062 33.4668C16.4062 33.8988 16.7563 34.248 17.1875 34.248Z" fill="#100623"/>
<path d="M17.1875 38.9355H32.8125C33.2445 38.9355 33.5937 38.5863 33.5937 38.1543C33.5937 37.7223 33.2445 37.373 32.8125 37.373H17.1875C16.7563 37.373 16.4062 37.7223 16.4062 38.1543C16.4062 38.5863 16.7563 38.9355 17.1875 38.9355Z" fill="#100623"/>
</g>
<defs>
<clipPath id="clip0">
<rect width="72.4638" height="72.4638" transform="translate(0 0.523438) scale(0.69)"/>
</clipPath>
</defs>
</svg>
