<svg width="264" height="130" viewBox="0 0 264 130" fill="none" xmlns="http://www.w3.org/2000/svg">
<g opacity="0.3">
<circle cx="135.495" cy="1.49474" r="1.49426" fill="#81818D"/>
<ellipse cx="142.966" cy="1.49474" rx="1.49426" ry="1.49426" fill="#81818D"/>
<ellipse cx="135.495" cy="8.96642" rx="1.49426" ry="1.49426" fill="#81818D"/>
<ellipse cx="142.966" cy="8.96642" rx="1.49426" ry="1.49426" fill="#81818D"/>
<circle cx="150.437" cy="1.49426" r="1.49426" fill="#81818D"/>
<ellipse cx="157.908" cy="1.49426" rx="1.49426" ry="1.49426" fill="#81818D"/>
<ellipse cx="150.437" cy="8.96594" rx="1.49426" ry="1.49426" fill="#81818D"/>
<ellipse cx="157.908" cy="8.96594" rx="1.49426" ry="1.49426" fill="#81818D"/>
<circle cx="165.38" cy="1.49426" r="1.49426" fill="#81818D"/>
<ellipse cx="172.851" cy="1.49426" rx="1.49426" ry="1.49426" fill="#81818D"/>
<ellipse cx="165.38" cy="8.96594" rx="1.49426" ry="1.49426" fill="#81818D"/>
<ellipse cx="172.851" cy="8.96594" rx="1.49426" ry="1.49426" fill="#81818D"/>
<circle cx="180.322" cy="1.49426" r="1.49426" fill="#81818D"/>
<ellipse cx="187.793" cy="1.49426" rx="1.49426" ry="1.49426" fill="#81818D"/>
<ellipse cx="180.322" cy="8.96594" rx="1.49426" ry="1.49426" fill="#81818D"/>
<ellipse cx="187.793" cy="8.96594" rx="1.49426" ry="1.49426" fill="#81818D"/>
<circle cx="195.264" cy="1.49426" r="1.49426" fill="#81818D"/>
<ellipse cx="202.735" cy="1.49426" rx="1.49426" ry="1.49426" fill="#81818D"/>
<ellipse cx="195.264" cy="8.96594" rx="1.49426" ry="1.49426" fill="#81818D"/>
<ellipse cx="202.735" cy="8.96594" rx="1.49426" ry="1.49426" fill="#81818D"/>
<circle cx="210.207" cy="1.49426" r="1.49426" fill="#81818D"/>
<ellipse cx="217.678" cy="1.49426" rx="1.49426" ry="1.49426" fill="#81818D"/>
<ellipse cx="210.207" cy="8.96594" rx="1.49426" ry="1.49426" fill="#81818D"/>
<ellipse cx="217.678" cy="8.96594" rx="1.49426" ry="1.49426" fill="#81818D"/>
<circle cx="225.15" cy="1.49426" r="1.49426" fill="#81818D"/>
<ellipse cx="232.621" cy="1.49426" rx="1.49426" ry="1.49426" fill="#81818D"/>
<ellipse cx="225.15" cy="8.96594" rx="1.49426" ry="1.49426" fill="#81818D"/>
<ellipse cx="232.621" cy="8.96594" rx="1.49426" ry="1.49426" fill="#81818D"/>
<circle cx="240.092" cy="1.49426" r="1.49426" fill="#81818D"/>
<ellipse cx="247.564" cy="1.49426" rx="1.49426" ry="1.49426" fill="#81818D"/>
<ellipse cx="240.092" cy="8.96594" rx="1.49426" ry="1.49426" fill="#81818D"/>
<ellipse cx="247.564" cy="8.96594" rx="1.49426" ry="1.49426" fill="#81818D"/>
<circle cx="255.035" cy="1.49426" r="1.49426" fill="#81818D"/>
<ellipse cx="262.506" cy="1.49426" rx="1.49426" ry="1.49426" fill="#81818D"/>
<ellipse cx="255.035" cy="8.96594" rx="1.49426" ry="1.49426" fill="#81818D"/>
<ellipse cx="262.506" cy="8.96594" rx="1.49426" ry="1.49426" fill="#81818D"/>
<circle cx="135.494" cy="16.4366" r="1.49426" fill="#81818D"/>
<ellipse cx="142.965" cy="16.4366" rx="1.49426" ry="1.49426" fill="#81818D"/>
<ellipse cx="135.494" cy="23.9083" rx="1.49426" ry="1.49426" fill="#81818D"/>
<ellipse cx="142.965" cy="23.9083" rx="1.49426" ry="1.49426" fill="#81818D"/>
<circle cx="150.437" cy="16.4366" r="1.49426" fill="#81818D"/>
<ellipse cx="157.908" cy="16.4366" rx="1.49426" ry="1.49426" fill="#81818D"/>
<ellipse cx="150.437" cy="23.9083" rx="1.49426" ry="1.49426" fill="#81818D"/>
<ellipse cx="157.908" cy="23.9083" rx="1.49426" ry="1.49426" fill="#81818D"/>
<circle cx="165.38" cy="16.4366" r="1.49426" fill="#81818D"/>
<ellipse cx="172.851" cy="16.4366" rx="1.49426" ry="1.49426" fill="#81818D"/>
<ellipse cx="165.38" cy="23.9083" rx="1.49426" ry="1.49426" fill="#81818D"/>
<ellipse cx="172.851" cy="23.9083" rx="1.49426" ry="1.49426" fill="#81818D"/>
<circle cx="180.322" cy="16.4366" r="1.49426" fill="#81818D"/>
<ellipse cx="187.793" cy="16.4366" rx="1.49426" ry="1.49426" fill="#81818D"/>
<ellipse cx="180.322" cy="23.9083" rx="1.49426" ry="1.49426" fill="#81818D"/>
<ellipse cx="187.793" cy="23.9083" rx="1.49426" ry="1.49426" fill="#81818D"/>
<circle cx="195.264" cy="16.4366" r="1.49426" fill="#81818D"/>
<ellipse cx="202.735" cy="16.4366" rx="1.49426" ry="1.49426" fill="#81818D"/>
<ellipse cx="195.264" cy="23.9083" rx="1.49426" ry="1.49426" fill="#81818D"/>
<ellipse cx="202.735" cy="23.9083" rx="1.49426" ry="1.49426" fill="#81818D"/>
<circle cx="210.207" cy="16.4366" r="1.49426" fill="#81818D"/>
<ellipse cx="217.678" cy="16.4366" rx="1.49426" ry="1.49426" fill="#81818D"/>
<ellipse cx="210.207" cy="23.9083" rx="1.49426" ry="1.49426" fill="#81818D"/>
<ellipse cx="217.678" cy="23.9083" rx="1.49426" ry="1.49426" fill="#81818D"/>
<circle cx="225.15" cy="16.4366" r="1.49426" fill="#81818D"/>
<ellipse cx="232.621" cy="16.4366" rx="1.49426" ry="1.49426" fill="#81818D"/>
<ellipse cx="225.15" cy="23.9083" rx="1.49426" ry="1.49426" fill="#81818D"/>
<ellipse cx="232.621" cy="23.9083" rx="1.49426" ry="1.49426" fill="#81818D"/>
<circle cx="240.092" cy="16.4366" r="1.49426" fill="#81818D"/>
<ellipse cx="247.564" cy="16.4366" rx="1.49426" ry="1.49426" fill="#81818D"/>
<ellipse cx="240.092" cy="23.9083" rx="1.49426" ry="1.49426" fill="#81818D"/>
<ellipse cx="247.564" cy="23.9083" rx="1.49426" ry="1.49426" fill="#81818D"/>
<circle cx="255.035" cy="16.4366" r="1.49426" fill="#81818D"/>
<ellipse cx="262.506" cy="16.4366" rx="1.49426" ry="1.49426" fill="#81818D"/>
<ellipse cx="255.035" cy="23.9083" rx="1.49426" ry="1.49426" fill="#81818D"/>
<ellipse cx="262.506" cy="23.9083" rx="1.49426" ry="1.49426" fill="#81818D"/>
<circle cx="135.494" cy="31.379" r="1.49426" fill="#81818D"/>
<ellipse cx="142.965" cy="31.379" rx="1.49426" ry="1.49426" fill="#81818D"/>
<ellipse cx="135.494" cy="38.8507" rx="1.49426" ry="1.49426" fill="#81818D"/>
<ellipse cx="142.965" cy="38.8507" rx="1.49426" ry="1.49426" fill="#81818D"/>
<circle cx="150.437" cy="31.379" r="1.49426" fill="#81818D"/>
<ellipse cx="157.908" cy="31.379" rx="1.49426" ry="1.49426" fill="#81818D"/>
<ellipse cx="150.437" cy="38.8507" rx="1.49426" ry="1.49426" fill="#81818D"/>
<ellipse cx="157.908" cy="38.8507" rx="1.49426" ry="1.49426" fill="#81818D"/>
<circle cx="165.38" cy="31.379" r="1.49426" fill="#81818D"/>
<ellipse cx="172.851" cy="31.379" rx="1.49426" ry="1.49426" fill="#81818D"/>
<ellipse cx="165.38" cy="38.8507" rx="1.49426" ry="1.49426" fill="#81818D"/>
<ellipse cx="172.851" cy="38.8507" rx="1.49426" ry="1.49426" fill="#81818D"/>
<circle cx="180.322" cy="31.379" r="1.49426" fill="#81818D"/>
<ellipse cx="187.793" cy="31.379" rx="1.49426" ry="1.49426" fill="#81818D"/>
<ellipse cx="180.322" cy="38.8507" rx="1.49426" ry="1.49426" fill="#81818D"/>
<ellipse cx="187.793" cy="38.8507" rx="1.49426" ry="1.49426" fill="#81818D"/>
<circle cx="195.264" cy="31.379" r="1.49426" fill="#81818D"/>
<ellipse cx="202.735" cy="31.379" rx="1.49426" ry="1.49426" fill="#81818D"/>
<ellipse cx="195.264" cy="38.8507" rx="1.49426" ry="1.49426" fill="#81818D"/>
<ellipse cx="202.735" cy="38.8507" rx="1.49426" ry="1.49426" fill="#81818D"/>
<circle cx="210.207" cy="31.379" r="1.49426" fill="#81818D"/>
<ellipse cx="217.678" cy="31.379" rx="1.49426" ry="1.49426" fill="#81818D"/>
<ellipse cx="210.207" cy="38.8507" rx="1.49426" ry="1.49426" fill="#81818D"/>
<ellipse cx="217.678" cy="38.8507" rx="1.49426" ry="1.49426" fill="#81818D"/>
<circle cx="225.15" cy="31.379" r="1.49426" fill="#81818D"/>
<ellipse cx="232.621" cy="31.379" rx="1.49426" ry="1.49426" fill="#81818D"/>
<ellipse cx="225.15" cy="38.8507" rx="1.49426" ry="1.49426" fill="#81818D"/>
<ellipse cx="232.621" cy="38.8507" rx="1.49426" ry="1.49426" fill="#81818D"/>
<circle cx="240.092" cy="31.379" r="1.49426" fill="#81818D"/>
<ellipse cx="247.564" cy="31.379" rx="1.49426" ry="1.49426" fill="#81818D"/>
<ellipse cx="240.092" cy="38.8507" rx="1.49426" ry="1.49426" fill="#81818D"/>
<ellipse cx="247.564" cy="38.8507" rx="1.49426" ry="1.49426" fill="#81818D"/>
<circle cx="255.035" cy="31.379" r="1.49426" fill="#81818D"/>
<ellipse cx="262.506" cy="31.379" rx="1.49426" ry="1.49426" fill="#81818D"/>
<ellipse cx="255.035" cy="38.8507" rx="1.49426" ry="1.49426" fill="#81818D"/>
<ellipse cx="262.506" cy="38.8507" rx="1.49426" ry="1.49426" fill="#81818D"/>
<circle cx="135.494" cy="46.3214" r="1.49426" fill="#81818D"/>
<ellipse cx="142.965" cy="46.3214" rx="1.49426" ry="1.49426" fill="#81818D"/>
<ellipse cx="135.494" cy="53.7931" rx="1.49426" ry="1.49426" fill="#81818D"/>
<ellipse cx="142.965" cy="53.7931" rx="1.49426" ry="1.49426" fill="#81818D"/>
<circle cx="150.437" cy="46.3214" r="1.49426" fill="#81818D"/>
<ellipse cx="157.908" cy="46.3214" rx="1.49426" ry="1.49426" fill="#81818D"/>
<ellipse cx="150.437" cy="53.7931" rx="1.49426" ry="1.49426" fill="#81818D"/>
<ellipse cx="157.908" cy="53.7931" rx="1.49426" ry="1.49426" fill="#81818D"/>
<circle cx="165.38" cy="46.3214" r="1.49426" fill="#81818D"/>
<ellipse cx="172.851" cy="46.3214" rx="1.49426" ry="1.49426" fill="#81818D"/>
<ellipse cx="165.38" cy="53.7931" rx="1.49426" ry="1.49426" fill="#81818D"/>
<ellipse cx="172.851" cy="53.7931" rx="1.49426" ry="1.49426" fill="#81818D"/>
<circle cx="180.322" cy="46.3214" r="1.49426" fill="#81818D"/>
<ellipse cx="187.793" cy="46.3214" rx="1.49426" ry="1.49426" fill="#81818D"/>
<ellipse cx="180.322" cy="53.7931" rx="1.49426" ry="1.49426" fill="#81818D"/>
<ellipse cx="187.793" cy="53.7931" rx="1.49426" ry="1.49426" fill="#81818D"/>
<circle cx="195.264" cy="46.3214" r="1.49426" fill="#81818D"/>
<ellipse cx="202.735" cy="46.3214" rx="1.49426" ry="1.49426" fill="#81818D"/>
<ellipse cx="195.264" cy="53.7931" rx="1.49426" ry="1.49426" fill="#81818D"/>
<ellipse cx="202.735" cy="53.7931" rx="1.49426" ry="1.49426" fill="#81818D"/>
<circle cx="210.207" cy="46.3214" r="1.49426" fill="#81818D"/>
<ellipse cx="217.678" cy="46.3214" rx="1.49426" ry="1.49426" fill="#81818D"/>
<ellipse cx="210.207" cy="53.7931" rx="1.49426" ry="1.49426" fill="#81818D"/>
<ellipse cx="217.678" cy="53.7931" rx="1.49426" ry="1.49426" fill="#81818D"/>
<circle cx="225.15" cy="46.3214" r="1.49426" fill="#81818D"/>
<ellipse cx="232.621" cy="46.3214" rx="1.49426" ry="1.49426" fill="#81818D"/>
<ellipse cx="225.15" cy="53.7931" rx="1.49426" ry="1.49426" fill="#81818D"/>
<ellipse cx="232.621" cy="53.7931" rx="1.49426" ry="1.49426" fill="#81818D"/>
<circle cx="240.092" cy="46.3214" r="1.49426" fill="#81818D"/>
<ellipse cx="247.564" cy="46.3214" rx="1.49426" ry="1.49426" fill="#81818D"/>
<ellipse cx="240.092" cy="53.7931" rx="1.49426" ry="1.49426" fill="#81818D"/>
<ellipse cx="247.564" cy="53.7931" rx="1.49426" ry="1.49426" fill="#81818D"/>
<circle cx="255.035" cy="46.3214" r="1.49426" fill="#81818D"/>
<ellipse cx="262.506" cy="46.3214" rx="1.49426" ry="1.49426" fill="#81818D"/>
<ellipse cx="255.035" cy="53.7931" rx="1.49426" ry="1.49426" fill="#81818D"/>
<ellipse cx="262.506" cy="53.7931" rx="1.49426" ry="1.49426" fill="#81818D"/>
<circle cx="135.494" cy="61.2648" r="1.49426" fill="#81818D"/>
<ellipse cx="142.965" cy="61.2648" rx="1.49426" ry="1.49426" fill="#81818D"/>
<ellipse cx="135.494" cy="68.7364" rx="1.49426" ry="1.49426" fill="#81818D"/>
<ellipse cx="142.965" cy="68.7364" rx="1.49426" ry="1.49426" fill="#81818D"/>
<circle cx="150.437" cy="61.2648" r="1.49426" fill="#81818D"/>
<ellipse cx="157.908" cy="61.2648" rx="1.49426" ry="1.49426" fill="#81818D"/>
<ellipse cx="150.437" cy="68.7364" rx="1.49426" ry="1.49426" fill="#81818D"/>
<ellipse cx="157.908" cy="68.7364" rx="1.49426" ry="1.49426" fill="#81818D"/>
<circle cx="165.38" cy="61.2648" r="1.49426" fill="#81818D"/>
<ellipse cx="172.851" cy="61.2648" rx="1.49426" ry="1.49426" fill="#81818D"/>
<ellipse cx="165.38" cy="68.7364" rx="1.49426" ry="1.49426" fill="#81818D"/>
<ellipse cx="172.851" cy="68.7364" rx="1.49426" ry="1.49426" fill="#81818D"/>
<circle cx="180.322" cy="61.2648" r="1.49426" fill="#81818D"/>
<ellipse cx="187.793" cy="61.2648" rx="1.49426" ry="1.49426" fill="#81818D"/>
<ellipse cx="180.322" cy="68.7364" rx="1.49426" ry="1.49426" fill="#81818D"/>
<ellipse cx="187.793" cy="68.7364" rx="1.49426" ry="1.49426" fill="#81818D"/>
<circle cx="195.264" cy="61.2648" r="1.49426" fill="#81818D"/>
<ellipse cx="202.735" cy="61.2648" rx="1.49426" ry="1.49426" fill="#81818D"/>
<ellipse cx="195.264" cy="68.7364" rx="1.49426" ry="1.49426" fill="#81818D"/>
<ellipse cx="202.735" cy="68.7364" rx="1.49426" ry="1.49426" fill="#81818D"/>
<circle cx="210.207" cy="61.2648" r="1.49426" fill="#81818D"/>
<ellipse cx="217.678" cy="61.2648" rx="1.49426" ry="1.49426" fill="#81818D"/>
<ellipse cx="210.207" cy="68.7364" rx="1.49426" ry="1.49426" fill="#81818D"/>
<ellipse cx="217.678" cy="68.7364" rx="1.49426" ry="1.49426" fill="#81818D"/>
<circle cx="225.15" cy="61.2648" r="1.49426" fill="#81818D"/>
<ellipse cx="232.621" cy="61.2648" rx="1.49426" ry="1.49426" fill="#81818D"/>
<ellipse cx="225.15" cy="68.7364" rx="1.49426" ry="1.49426" fill="#81818D"/>
<ellipse cx="232.621" cy="68.7364" rx="1.49426" ry="1.49426" fill="#81818D"/>
<circle cx="240.092" cy="61.2648" r="1.49426" fill="#81818D"/>
<ellipse cx="247.564" cy="61.2648" rx="1.49426" ry="1.49426" fill="#81818D"/>
<ellipse cx="240.092" cy="68.7364" rx="1.49426" ry="1.49426" fill="#81818D"/>
<ellipse cx="247.564" cy="68.7364" rx="1.49426" ry="1.49426" fill="#81818D"/>
<circle cx="255.035" cy="61.2648" r="1.49426" fill="#81818D"/>
<ellipse cx="262.506" cy="61.2648" rx="1.49426" ry="1.49426" fill="#81818D"/>
<ellipse cx="255.035" cy="68.7364" rx="1.49426" ry="1.49426" fill="#81818D"/>
<ellipse cx="262.506" cy="68.7364" rx="1.49426" ry="1.49426" fill="#81818D"/>
<circle cx="135.494" cy="76.2071" r="1.49426" fill="#81818D"/>
<ellipse cx="142.965" cy="76.2071" rx="1.49426" ry="1.49426" fill="#81818D"/>
<ellipse cx="135.494" cy="83.6788" rx="1.49426" ry="1.49426" fill="#81818D"/>
<ellipse cx="142.965" cy="83.6788" rx="1.49426" ry="1.49426" fill="#81818D"/>
<circle cx="150.437" cy="76.2071" r="1.49426" fill="#81818D"/>
<ellipse cx="157.908" cy="76.2071" rx="1.49426" ry="1.49426" fill="#81818D"/>
<ellipse cx="150.437" cy="83.6788" rx="1.49426" ry="1.49426" fill="#81818D"/>
<ellipse cx="157.908" cy="83.6788" rx="1.49426" ry="1.49426" fill="#81818D"/>
<circle cx="165.38" cy="76.2071" r="1.49426" fill="#81818D"/>
<ellipse cx="172.851" cy="76.2071" rx="1.49426" ry="1.49426" fill="#81818D"/>
<ellipse cx="165.38" cy="83.6788" rx="1.49426" ry="1.49426" fill="#81818D"/>
<ellipse cx="172.851" cy="83.6788" rx="1.49426" ry="1.49426" fill="#81818D"/>
<circle cx="180.322" cy="76.2071" r="1.49426" fill="#81818D"/>
<ellipse cx="187.793" cy="76.2071" rx="1.49426" ry="1.49426" fill="#81818D"/>
<ellipse cx="180.322" cy="83.6788" rx="1.49426" ry="1.49426" fill="#81818D"/>
<ellipse cx="187.793" cy="83.6788" rx="1.49426" ry="1.49426" fill="#81818D"/>
<circle cx="195.264" cy="76.2071" r="1.49426" fill="#81818D"/>
<ellipse cx="202.735" cy="76.2071" rx="1.49426" ry="1.49426" fill="#81818D"/>
<ellipse cx="195.264" cy="83.6788" rx="1.49426" ry="1.49426" fill="#81818D"/>
<ellipse cx="202.735" cy="83.6788" rx="1.49426" ry="1.49426" fill="#81818D"/>
<circle cx="210.207" cy="76.2071" r="1.49426" fill="#81818D"/>
<ellipse cx="217.678" cy="76.2071" rx="1.49426" ry="1.49426" fill="#81818D"/>
<ellipse cx="210.207" cy="83.6788" rx="1.49426" ry="1.49426" fill="#81818D"/>
<ellipse cx="217.678" cy="83.6788" rx="1.49426" ry="1.49426" fill="#81818D"/>
<circle cx="225.15" cy="76.2071" r="1.49426" fill="#81818D"/>
<ellipse cx="232.621" cy="76.2071" rx="1.49426" ry="1.49426" fill="#81818D"/>
<ellipse cx="225.15" cy="83.6788" rx="1.49426" ry="1.49426" fill="#81818D"/>
<ellipse cx="232.621" cy="83.6788" rx="1.49426" ry="1.49426" fill="#81818D"/>
<circle cx="240.092" cy="76.2071" r="1.49426" fill="#81818D"/>
<ellipse cx="247.564" cy="76.2071" rx="1.49426" ry="1.49426" fill="#81818D"/>
<ellipse cx="240.092" cy="83.6788" rx="1.49426" ry="1.49426" fill="#81818D"/>
<ellipse cx="247.564" cy="83.6788" rx="1.49426" ry="1.49426" fill="#81818D"/>
<circle cx="255.035" cy="76.2071" r="1.49426" fill="#81818D"/>
<ellipse cx="262.506" cy="76.2071" rx="1.49426" ry="1.49426" fill="#81818D"/>
<ellipse cx="255.035" cy="83.6788" rx="1.49426" ry="1.49426" fill="#81818D"/>
<ellipse cx="262.506" cy="83.6788" rx="1.49426" ry="1.49426" fill="#81818D"/>
<circle cx="135.494" cy="91.1495" r="1.49426" fill="#81818D"/>
<ellipse cx="142.965" cy="91.1495" rx="1.49426" ry="1.49426" fill="#81818D"/>
<ellipse cx="135.494" cy="98.6212" rx="1.49426" ry="1.49426" fill="#81818D"/>
<ellipse cx="142.965" cy="98.6212" rx="1.49426" ry="1.49426" fill="#81818D"/>
<circle cx="150.437" cy="91.1495" r="1.49426" fill="#81818D"/>
<ellipse cx="157.908" cy="91.1495" rx="1.49426" ry="1.49426" fill="#81818D"/>
<ellipse cx="150.437" cy="98.6212" rx="1.49426" ry="1.49426" fill="#81818D"/>
<ellipse cx="157.908" cy="98.6212" rx="1.49426" ry="1.49426" fill="#81818D"/>
<circle cx="165.38" cy="91.1495" r="1.49426" fill="#81818D"/>
<ellipse cx="172.851" cy="91.1495" rx="1.49426" ry="1.49426" fill="#81818D"/>
<ellipse cx="165.38" cy="98.6212" rx="1.49426" ry="1.49426" fill="#81818D"/>
<ellipse cx="172.851" cy="98.6212" rx="1.49426" ry="1.49426" fill="#81818D"/>
<circle cx="180.322" cy="91.1495" r="1.49426" fill="#81818D"/>
<ellipse cx="187.793" cy="91.1495" rx="1.49426" ry="1.49426" fill="#81818D"/>
<ellipse cx="180.322" cy="98.6212" rx="1.49426" ry="1.49426" fill="#81818D"/>
<ellipse cx="187.793" cy="98.6212" rx="1.49426" ry="1.49426" fill="#81818D"/>
<circle cx="195.264" cy="91.1495" r="1.49426" fill="#81818D"/>
<ellipse cx="202.735" cy="91.1495" rx="1.49426" ry="1.49426" fill="#81818D"/>
<ellipse cx="195.264" cy="98.6212" rx="1.49426" ry="1.49426" fill="#81818D"/>
<ellipse cx="202.735" cy="98.6212" rx="1.49426" ry="1.49426" fill="#81818D"/>
<circle cx="210.207" cy="91.1495" r="1.49426" fill="#81818D"/>
<ellipse cx="217.678" cy="91.1495" rx="1.49426" ry="1.49426" fill="#81818D"/>
<ellipse cx="210.207" cy="98.6212" rx="1.49426" ry="1.49426" fill="#81818D"/>
<ellipse cx="217.678" cy="98.6212" rx="1.49426" ry="1.49426" fill="#81818D"/>
<circle cx="225.15" cy="91.1495" r="1.49426" fill="#81818D"/>
<ellipse cx="232.621" cy="91.1495" rx="1.49426" ry="1.49426" fill="#81818D"/>
<ellipse cx="225.15" cy="98.6212" rx="1.49426" ry="1.49426" fill="#81818D"/>
<ellipse cx="232.621" cy="98.6212" rx="1.49426" ry="1.49426" fill="#81818D"/>
<circle cx="240.092" cy="91.1495" r="1.49426" fill="#81818D"/>
<ellipse cx="247.564" cy="91.1495" rx="1.49426" ry="1.49426" fill="#81818D"/>
<ellipse cx="240.092" cy="98.6212" rx="1.49426" ry="1.49426" fill="#81818D"/>
<ellipse cx="247.564" cy="98.6212" rx="1.49426" ry="1.49426" fill="#81818D"/>
<circle cx="255.035" cy="91.1495" r="1.49426" fill="#81818D"/>
<ellipse cx="262.506" cy="91.1495" rx="1.49426" ry="1.49426" fill="#81818D"/>
<ellipse cx="255.035" cy="98.6212" rx="1.49426" ry="1.49426" fill="#81818D"/>
<ellipse cx="262.506" cy="98.6212" rx="1.49426" ry="1.49426" fill="#81818D"/>
<circle cx="135.494" cy="106.092" r="1.49426" fill="#81818D"/>
<ellipse cx="142.965" cy="106.092" rx="1.49426" ry="1.49426" fill="#81818D"/>
<ellipse cx="135.494" cy="113.564" rx="1.49426" ry="1.49426" fill="#81818D"/>
<ellipse cx="142.965" cy="113.564" rx="1.49426" ry="1.49426" fill="#81818D"/>
<circle cx="150.437" cy="106.092" r="1.49426" fill="#81818D"/>
<ellipse cx="157.908" cy="106.092" rx="1.49426" ry="1.49426" fill="#81818D"/>
<ellipse cx="150.437" cy="113.564" rx="1.49426" ry="1.49426" fill="#81818D"/>
<ellipse cx="157.908" cy="113.564" rx="1.49426" ry="1.49426" fill="#81818D"/>
<circle cx="165.38" cy="106.092" r="1.49426" fill="#81818D"/>
<ellipse cx="172.851" cy="106.092" rx="1.49426" ry="1.49426" fill="#81818D"/>
<ellipse cx="165.38" cy="113.564" rx="1.49426" ry="1.49426" fill="#81818D"/>
<ellipse cx="172.851" cy="113.564" rx="1.49426" ry="1.49426" fill="#81818D"/>
<circle cx="180.322" cy="106.092" r="1.49426" fill="#81818D"/>
<ellipse cx="187.793" cy="106.092" rx="1.49426" ry="1.49426" fill="#81818D"/>
<ellipse cx="180.322" cy="113.564" rx="1.49426" ry="1.49426" fill="#81818D"/>
<ellipse cx="187.793" cy="113.564" rx="1.49426" ry="1.49426" fill="#81818D"/>
<circle cx="195.264" cy="106.092" r="1.49426" fill="#81818D"/>
<ellipse cx="202.735" cy="106.092" rx="1.49426" ry="1.49426" fill="#81818D"/>
<ellipse cx="195.264" cy="113.564" rx="1.49426" ry="1.49426" fill="#81818D"/>
<ellipse cx="202.735" cy="113.564" rx="1.49426" ry="1.49426" fill="#81818D"/>
<circle cx="210.207" cy="106.092" r="1.49426" fill="#81818D"/>
<ellipse cx="217.678" cy="106.092" rx="1.49426" ry="1.49426" fill="#81818D"/>
<ellipse cx="210.207" cy="113.564" rx="1.49426" ry="1.49426" fill="#81818D"/>
<ellipse cx="217.678" cy="113.564" rx="1.49426" ry="1.49426" fill="#81818D"/>
<circle cx="225.15" cy="106.092" r="1.49426" fill="#81818D"/>
<ellipse cx="232.621" cy="106.092" rx="1.49426" ry="1.49426" fill="#81818D"/>
<ellipse cx="225.15" cy="113.564" rx="1.49426" ry="1.49426" fill="#81818D"/>
<ellipse cx="232.621" cy="113.564" rx="1.49426" ry="1.49426" fill="#81818D"/>
<circle cx="240.092" cy="106.092" r="1.49426" fill="#81818D"/>
<ellipse cx="247.564" cy="106.092" rx="1.49426" ry="1.49426" fill="#81818D"/>
<ellipse cx="240.092" cy="113.564" rx="1.49426" ry="1.49426" fill="#81818D"/>
<ellipse cx="247.564" cy="113.564" rx="1.49426" ry="1.49426" fill="#81818D"/>
<circle cx="255.035" cy="106.092" r="1.49426" fill="#81818D"/>
<ellipse cx="262.506" cy="106.092" rx="1.49426" ry="1.49426" fill="#81818D"/>
<ellipse cx="255.035" cy="113.564" rx="1.49426" ry="1.49426" fill="#81818D"/>
<ellipse cx="262.506" cy="113.564" rx="1.49426" ry="1.49426" fill="#81818D"/>
<circle cx="135.494" cy="121.034" r="1.49426" fill="#81818D"/>
<ellipse cx="142.965" cy="121.034" rx="1.49426" ry="1.49426" fill="#81818D"/>
<ellipse cx="135.494" cy="128.506" rx="1.49426" ry="1.49426" fill="#81818D"/>
<ellipse cx="142.965" cy="128.506" rx="1.49426" ry="1.49426" fill="#81818D"/>
<circle cx="150.437" cy="121.034" r="1.49426" fill="#81818D"/>
<ellipse cx="157.908" cy="121.034" rx="1.49426" ry="1.49426" fill="#81818D"/>
<ellipse cx="150.437" cy="128.506" rx="1.49426" ry="1.49426" fill="#81818D"/>
<ellipse cx="157.908" cy="128.506" rx="1.49426" ry="1.49426" fill="#81818D"/>
<circle cx="165.38" cy="121.034" r="1.49426" fill="#81818D"/>
<ellipse cx="172.851" cy="121.034" rx="1.49426" ry="1.49426" fill="#81818D"/>
<ellipse cx="165.38" cy="128.506" rx="1.49426" ry="1.49426" fill="#81818D"/>
<ellipse cx="172.851" cy="128.506" rx="1.49426" ry="1.49426" fill="#81818D"/>
<circle cx="180.322" cy="121.034" r="1.49426" fill="#81818D"/>
<ellipse cx="187.793" cy="121.034" rx="1.49426" ry="1.49426" fill="#81818D"/>
<ellipse cx="180.322" cy="128.506" rx="1.49426" ry="1.49426" fill="#81818D"/>
<ellipse cx="187.793" cy="128.506" rx="1.49426" ry="1.49426" fill="#81818D"/>
<circle cx="195.264" cy="121.034" r="1.49426" fill="#81818D"/>
<ellipse cx="202.735" cy="121.034" rx="1.49426" ry="1.49426" fill="#81818D"/>
<ellipse cx="195.264" cy="128.506" rx="1.49426" ry="1.49426" fill="#81818D"/>
<ellipse cx="202.735" cy="128.506" rx="1.49426" ry="1.49426" fill="#81818D"/>
<circle cx="210.207" cy="121.034" r="1.49426" fill="#81818D"/>
<ellipse cx="217.678" cy="121.034" rx="1.49426" ry="1.49426" fill="#81818D"/>
<ellipse cx="210.207" cy="128.506" rx="1.49426" ry="1.49426" fill="#81818D"/>
<ellipse cx="217.678" cy="128.506" rx="1.49426" ry="1.49426" fill="#81818D"/>
<circle cx="225.15" cy="121.034" r="1.49426" fill="#81818D"/>
<ellipse cx="232.621" cy="121.034" rx="1.49426" ry="1.49426" fill="#81818D"/>
<ellipse cx="225.15" cy="128.506" rx="1.49426" ry="1.49426" fill="#81818D"/>
<ellipse cx="232.621" cy="128.506" rx="1.49426" ry="1.49426" fill="#81818D"/>
<circle cx="240.092" cy="121.034" r="1.49426" fill="#81818D"/>
<ellipse cx="247.564" cy="121.034" rx="1.49426" ry="1.49426" fill="#81818D"/>
<ellipse cx="240.092" cy="128.506" rx="1.49426" ry="1.49426" fill="#81818D"/>
<ellipse cx="247.564" cy="128.506" rx="1.49426" ry="1.49426" fill="#81818D"/>
<circle cx="255.035" cy="121.034" r="1.49426" fill="#81818D"/>
<ellipse cx="262.506" cy="121.034" rx="1.49426" ry="1.49426" fill="#81818D"/>
<ellipse cx="255.035" cy="128.506" rx="1.49426" ry="1.49426" fill="#81818D"/>
<ellipse cx="262.506" cy="128.506" rx="1.49426" ry="1.49426" fill="#81818D"/>
</g>
<g opacity="0.3">
<circle cx="1.49474" cy="1.49474" r="1.49426" fill="#81818D"/>
<ellipse cx="8.96594" cy="1.49474" rx="1.49426" ry="1.49426" fill="#81818D"/>
<ellipse cx="1.49474" cy="8.96642" rx="1.49426" ry="1.49426" fill="#81818D"/>
<ellipse cx="8.96594" cy="8.96642" rx="1.49426" ry="1.49426" fill="#81818D"/>
<circle cx="16.4366" cy="1.49426" r="1.49426" fill="#81818D"/>
<ellipse cx="23.9078" cy="1.49426" rx="1.49426" ry="1.49426" fill="#81818D"/>
<ellipse cx="16.4366" cy="8.96594" rx="1.49426" ry="1.49426" fill="#81818D"/>
<ellipse cx="23.9078" cy="8.96594" rx="1.49426" ry="1.49426" fill="#81818D"/>
<circle cx="31.3795" cy="1.49426" r="1.49426" fill="#81818D"/>
<ellipse cx="38.8507" cy="1.49426" rx="1.49426" ry="1.49426" fill="#81818D"/>
<ellipse cx="31.3795" cy="8.96594" rx="1.49426" ry="1.49426" fill="#81818D"/>
<ellipse cx="38.8507" cy="8.96594" rx="1.49426" ry="1.49426" fill="#81818D"/>
<circle cx="46.3219" cy="1.49426" r="1.49426" fill="#81818D"/>
<ellipse cx="53.7931" cy="1.49426" rx="1.49426" ry="1.49426" fill="#81818D"/>
<ellipse cx="46.3219" cy="8.96594" rx="1.49426" ry="1.49426" fill="#81818D"/>
<ellipse cx="53.7931" cy="8.96594" rx="1.49426" ry="1.49426" fill="#81818D"/>
<circle cx="61.2643" cy="1.49426" r="1.49426" fill="#81818D"/>
<ellipse cx="68.7355" cy="1.49426" rx="1.49426" ry="1.49426" fill="#81818D"/>
<ellipse cx="61.2643" cy="8.96594" rx="1.49426" ry="1.49426" fill="#81818D"/>
<ellipse cx="68.7355" cy="8.96594" rx="1.49426" ry="1.49426" fill="#81818D"/>
<circle cx="76.2071" cy="1.49426" r="1.49426" fill="#81818D"/>
<ellipse cx="83.6783" cy="1.49426" rx="1.49426" ry="1.49426" fill="#81818D"/>
<ellipse cx="76.2071" cy="8.96594" rx="1.49426" ry="1.49426" fill="#81818D"/>
<ellipse cx="83.6783" cy="8.96594" rx="1.49426" ry="1.49426" fill="#81818D"/>
<circle cx="91.1495" cy="1.49426" r="1.49426" fill="#81818D"/>
<ellipse cx="98.6207" cy="1.49426" rx="1.49426" ry="1.49426" fill="#81818D"/>
<ellipse cx="91.1495" cy="8.96594" rx="1.49426" ry="1.49426" fill="#81818D"/>
<ellipse cx="98.6207" cy="8.96594" rx="1.49426" ry="1.49426" fill="#81818D"/>
<circle cx="106.092" cy="1.49426" r="1.49426" fill="#81818D"/>
<ellipse cx="113.564" cy="1.49426" rx="1.49426" ry="1.49426" fill="#81818D"/>
<ellipse cx="106.092" cy="8.96594" rx="1.49426" ry="1.49426" fill="#81818D"/>
<ellipse cx="113.564" cy="8.96594" rx="1.49426" ry="1.49426" fill="#81818D"/>
<circle cx="121.035" cy="1.49426" r="1.49426" fill="#81818D"/>
<ellipse cx="128.506" cy="1.49426" rx="1.49426" ry="1.49426" fill="#81818D"/>
<ellipse cx="121.035" cy="8.96594" rx="1.49426" ry="1.49426" fill="#81818D"/>
<ellipse cx="128.506" cy="8.96594" rx="1.49426" ry="1.49426" fill="#81818D"/>
<circle cx="1.49426" cy="16.4366" r="1.49426" fill="#81818D"/>
<ellipse cx="8.96545" cy="16.4366" rx="1.49426" ry="1.49426" fill="#81818D"/>
<ellipse cx="1.49426" cy="23.9083" rx="1.49426" ry="1.49426" fill="#81818D"/>
<ellipse cx="8.96545" cy="23.9083" rx="1.49426" ry="1.49426" fill="#81818D"/>
<circle cx="16.4366" cy="16.4366" r="1.49426" fill="#81818D"/>
<ellipse cx="23.9078" cy="16.4366" rx="1.49426" ry="1.49426" fill="#81818D"/>
<ellipse cx="16.4366" cy="23.9083" rx="1.49426" ry="1.49426" fill="#81818D"/>
<ellipse cx="23.9078" cy="23.9083" rx="1.49426" ry="1.49426" fill="#81818D"/>
<circle cx="31.3795" cy="16.4366" r="1.49426" fill="#81818D"/>
<ellipse cx="38.8507" cy="16.4366" rx="1.49426" ry="1.49426" fill="#81818D"/>
<ellipse cx="31.3795" cy="23.9083" rx="1.49426" ry="1.49426" fill="#81818D"/>
<ellipse cx="38.8507" cy="23.9083" rx="1.49426" ry="1.49426" fill="#81818D"/>
<circle cx="46.3219" cy="16.4366" r="1.49426" fill="#81818D"/>
<ellipse cx="53.7931" cy="16.4366" rx="1.49426" ry="1.49426" fill="#81818D"/>
<ellipse cx="46.3219" cy="23.9083" rx="1.49426" ry="1.49426" fill="#81818D"/>
<ellipse cx="53.7931" cy="23.9083" rx="1.49426" ry="1.49426" fill="#81818D"/>
<circle cx="61.2643" cy="16.4366" r="1.49426" fill="#81818D"/>
<ellipse cx="68.7355" cy="16.4366" rx="1.49426" ry="1.49426" fill="#81818D"/>
<ellipse cx="61.2643" cy="23.9083" rx="1.49426" ry="1.49426" fill="#81818D"/>
<ellipse cx="68.7355" cy="23.9083" rx="1.49426" ry="1.49426" fill="#81818D"/>
<circle cx="76.2071" cy="16.4366" r="1.49426" fill="#81818D"/>
<ellipse cx="83.6783" cy="16.4366" rx="1.49426" ry="1.49426" fill="#81818D"/>
<ellipse cx="76.2071" cy="23.9083" rx="1.49426" ry="1.49426" fill="#81818D"/>
<ellipse cx="83.6783" cy="23.9083" rx="1.49426" ry="1.49426" fill="#81818D"/>
<circle cx="91.1495" cy="16.4366" r="1.49426" fill="#81818D"/>
<ellipse cx="98.6207" cy="16.4366" rx="1.49426" ry="1.49426" fill="#81818D"/>
<ellipse cx="91.1495" cy="23.9083" rx="1.49426" ry="1.49426" fill="#81818D"/>
<ellipse cx="98.6207" cy="23.9083" rx="1.49426" ry="1.49426" fill="#81818D"/>
<circle cx="106.092" cy="16.4366" r="1.49426" fill="#81818D"/>
<ellipse cx="113.564" cy="16.4366" rx="1.49426" ry="1.49426" fill="#81818D"/>
<ellipse cx="106.092" cy="23.9083" rx="1.49426" ry="1.49426" fill="#81818D"/>
<ellipse cx="113.564" cy="23.9083" rx="1.49426" ry="1.49426" fill="#81818D"/>
<circle cx="121.035" cy="16.4366" r="1.49426" fill="#81818D"/>
<ellipse cx="128.506" cy="16.4366" rx="1.49426" ry="1.49426" fill="#81818D"/>
<ellipse cx="121.035" cy="23.9083" rx="1.49426" ry="1.49426" fill="#81818D"/>
<ellipse cx="128.506" cy="23.9083" rx="1.49426" ry="1.49426" fill="#81818D"/>
<circle cx="1.49426" cy="31.379" r="1.49426" fill="#81818D"/>
<ellipse cx="8.96545" cy="31.379" rx="1.49426" ry="1.49426" fill="#81818D"/>
<ellipse cx="1.49426" cy="38.8507" rx="1.49426" ry="1.49426" fill="#81818D"/>
<ellipse cx="8.96545" cy="38.8507" rx="1.49426" ry="1.49426" fill="#81818D"/>
<circle cx="16.4366" cy="31.379" r="1.49426" fill="#81818D"/>
<ellipse cx="23.9078" cy="31.379" rx="1.49426" ry="1.49426" fill="#81818D"/>
<ellipse cx="16.4366" cy="38.8507" rx="1.49426" ry="1.49426" fill="#81818D"/>
<ellipse cx="23.9078" cy="38.8507" rx="1.49426" ry="1.49426" fill="#81818D"/>
<circle cx="31.3795" cy="31.379" r="1.49426" fill="#81818D"/>
<ellipse cx="38.8507" cy="31.379" rx="1.49426" ry="1.49426" fill="#81818D"/>
<ellipse cx="31.3795" cy="38.8507" rx="1.49426" ry="1.49426" fill="#81818D"/>
<ellipse cx="38.8507" cy="38.8507" rx="1.49426" ry="1.49426" fill="#81818D"/>
<circle cx="46.3219" cy="31.379" r="1.49426" fill="#81818D"/>
<ellipse cx="53.7931" cy="31.379" rx="1.49426" ry="1.49426" fill="#81818D"/>
<ellipse cx="46.3219" cy="38.8507" rx="1.49426" ry="1.49426" fill="#81818D"/>
<ellipse cx="53.7931" cy="38.8507" rx="1.49426" ry="1.49426" fill="#81818D"/>
<circle cx="61.2643" cy="31.379" r="1.49426" fill="#81818D"/>
<ellipse cx="68.7355" cy="31.379" rx="1.49426" ry="1.49426" fill="#81818D"/>
<ellipse cx="61.2643" cy="38.8507" rx="1.49426" ry="1.49426" fill="#81818D"/>
<ellipse cx="68.7355" cy="38.8507" rx="1.49426" ry="1.49426" fill="#81818D"/>
<circle cx="76.2071" cy="31.379" r="1.49426" fill="#81818D"/>
<ellipse cx="83.6783" cy="31.379" rx="1.49426" ry="1.49426" fill="#81818D"/>
<ellipse cx="76.2071" cy="38.8507" rx="1.49426" ry="1.49426" fill="#81818D"/>
<ellipse cx="83.6783" cy="38.8507" rx="1.49426" ry="1.49426" fill="#81818D"/>
<circle cx="91.1495" cy="31.379" r="1.49426" fill="#81818D"/>
<ellipse cx="98.6207" cy="31.379" rx="1.49426" ry="1.49426" fill="#81818D"/>
<ellipse cx="91.1495" cy="38.8507" rx="1.49426" ry="1.49426" fill="#81818D"/>
<ellipse cx="98.6207" cy="38.8507" rx="1.49426" ry="1.49426" fill="#81818D"/>
<circle cx="106.092" cy="31.379" r="1.49426" fill="#81818D"/>
<ellipse cx="113.564" cy="31.379" rx="1.49426" ry="1.49426" fill="#81818D"/>
<ellipse cx="106.092" cy="38.8507" rx="1.49426" ry="1.49426" fill="#81818D"/>
<ellipse cx="113.564" cy="38.8507" rx="1.49426" ry="1.49426" fill="#81818D"/>
<circle cx="121.035" cy="31.379" r="1.49426" fill="#81818D"/>
<ellipse cx="128.506" cy="31.379" rx="1.49426" ry="1.49426" fill="#81818D"/>
<ellipse cx="121.035" cy="38.8507" rx="1.49426" ry="1.49426" fill="#81818D"/>
<ellipse cx="128.506" cy="38.8507" rx="1.49426" ry="1.49426" fill="#81818D"/>
<circle cx="1.49426" cy="46.3214" r="1.49426" fill="#81818D"/>
<ellipse cx="8.96545" cy="46.3214" rx="1.49426" ry="1.49426" fill="#81818D"/>
<ellipse cx="1.49426" cy="53.7931" rx="1.49426" ry="1.49426" fill="#81818D"/>
<ellipse cx="8.96545" cy="53.7931" rx="1.49426" ry="1.49426" fill="#81818D"/>
<circle cx="16.4366" cy="46.3214" r="1.49426" fill="#81818D"/>
<ellipse cx="23.9078" cy="46.3214" rx="1.49426" ry="1.49426" fill="#81818D"/>
<ellipse cx="16.4366" cy="53.7931" rx="1.49426" ry="1.49426" fill="#81818D"/>
<ellipse cx="23.9078" cy="53.7931" rx="1.49426" ry="1.49426" fill="#81818D"/>
<circle cx="31.3795" cy="46.3214" r="1.49426" fill="#81818D"/>
<ellipse cx="38.8507" cy="46.3214" rx="1.49426" ry="1.49426" fill="#81818D"/>
<ellipse cx="31.3795" cy="53.7931" rx="1.49426" ry="1.49426" fill="#81818D"/>
<ellipse cx="38.8507" cy="53.7931" rx="1.49426" ry="1.49426" fill="#81818D"/>
<circle cx="46.3219" cy="46.3214" r="1.49426" fill="#81818D"/>
<ellipse cx="53.7931" cy="46.3214" rx="1.49426" ry="1.49426" fill="#81818D"/>
<ellipse cx="46.3219" cy="53.7931" rx="1.49426" ry="1.49426" fill="#81818D"/>
<ellipse cx="53.7931" cy="53.7931" rx="1.49426" ry="1.49426" fill="#81818D"/>
<circle cx="61.2643" cy="46.3214" r="1.49426" fill="#81818D"/>
<ellipse cx="68.7355" cy="46.3214" rx="1.49426" ry="1.49426" fill="#81818D"/>
<ellipse cx="61.2643" cy="53.7931" rx="1.49426" ry="1.49426" fill="#81818D"/>
<ellipse cx="68.7355" cy="53.7931" rx="1.49426" ry="1.49426" fill="#81818D"/>
<circle cx="76.2071" cy="46.3214" r="1.49426" fill="#81818D"/>
<ellipse cx="83.6783" cy="46.3214" rx="1.49426" ry="1.49426" fill="#81818D"/>
<ellipse cx="76.2071" cy="53.7931" rx="1.49426" ry="1.49426" fill="#81818D"/>
<ellipse cx="83.6783" cy="53.7931" rx="1.49426" ry="1.49426" fill="#81818D"/>
<circle cx="91.1495" cy="46.3214" r="1.49426" fill="#81818D"/>
<ellipse cx="98.6207" cy="46.3214" rx="1.49426" ry="1.49426" fill="#81818D"/>
<ellipse cx="91.1495" cy="53.7931" rx="1.49426" ry="1.49426" fill="#81818D"/>
<ellipse cx="98.6207" cy="53.7931" rx="1.49426" ry="1.49426" fill="#81818D"/>
<circle cx="106.092" cy="46.3214" r="1.49426" fill="#81818D"/>
<ellipse cx="113.564" cy="46.3214" rx="1.49426" ry="1.49426" fill="#81818D"/>
<ellipse cx="106.092" cy="53.7931" rx="1.49426" ry="1.49426" fill="#81818D"/>
<ellipse cx="113.564" cy="53.7931" rx="1.49426" ry="1.49426" fill="#81818D"/>
<circle cx="121.035" cy="46.3214" r="1.49426" fill="#81818D"/>
<ellipse cx="128.506" cy="46.3214" rx="1.49426" ry="1.49426" fill="#81818D"/>
<ellipse cx="121.035" cy="53.7931" rx="1.49426" ry="1.49426" fill="#81818D"/>
<ellipse cx="128.506" cy="53.7931" rx="1.49426" ry="1.49426" fill="#81818D"/>
<circle cx="1.49426" cy="61.2648" r="1.49426" fill="#81818D"/>
<ellipse cx="8.96545" cy="61.2648" rx="1.49426" ry="1.49426" fill="#81818D"/>
<ellipse cx="1.49426" cy="68.7364" rx="1.49426" ry="1.49426" fill="#81818D"/>
<ellipse cx="8.96545" cy="68.7364" rx="1.49426" ry="1.49426" fill="#81818D"/>
<circle cx="16.4366" cy="61.2648" r="1.49426" fill="#81818D"/>
<ellipse cx="23.9078" cy="61.2648" rx="1.49426" ry="1.49426" fill="#81818D"/>
<ellipse cx="16.4366" cy="68.7364" rx="1.49426" ry="1.49426" fill="#81818D"/>
<ellipse cx="23.9078" cy="68.7364" rx="1.49426" ry="1.49426" fill="#81818D"/>
<circle cx="31.3795" cy="61.2648" r="1.49426" fill="#81818D"/>
<ellipse cx="38.8507" cy="61.2648" rx="1.49426" ry="1.49426" fill="#81818D"/>
<ellipse cx="31.3795" cy="68.7364" rx="1.49426" ry="1.49426" fill="#81818D"/>
<ellipse cx="38.8507" cy="68.7364" rx="1.49426" ry="1.49426" fill="#81818D"/>
<circle cx="46.3219" cy="61.2648" r="1.49426" fill="#81818D"/>
<ellipse cx="53.7931" cy="61.2648" rx="1.49426" ry="1.49426" fill="#81818D"/>
<ellipse cx="46.3219" cy="68.7364" rx="1.49426" ry="1.49426" fill="#81818D"/>
<ellipse cx="53.7931" cy="68.7364" rx="1.49426" ry="1.49426" fill="#81818D"/>
<circle cx="61.2643" cy="61.2648" r="1.49426" fill="#81818D"/>
<ellipse cx="68.7355" cy="61.2648" rx="1.49426" ry="1.49426" fill="#81818D"/>
<ellipse cx="61.2643" cy="68.7364" rx="1.49426" ry="1.49426" fill="#81818D"/>
<ellipse cx="68.7355" cy="68.7364" rx="1.49426" ry="1.49426" fill="#81818D"/>
<circle cx="76.2071" cy="61.2648" r="1.49426" fill="#81818D"/>
<ellipse cx="83.6783" cy="61.2648" rx="1.49426" ry="1.49426" fill="#81818D"/>
<ellipse cx="76.2071" cy="68.7364" rx="1.49426" ry="1.49426" fill="#81818D"/>
<ellipse cx="83.6783" cy="68.7364" rx="1.49426" ry="1.49426" fill="#81818D"/>
<circle cx="91.1495" cy="61.2648" r="1.49426" fill="#81818D"/>
<ellipse cx="98.6207" cy="61.2648" rx="1.49426" ry="1.49426" fill="#81818D"/>
<ellipse cx="91.1495" cy="68.7364" rx="1.49426" ry="1.49426" fill="#81818D"/>
<ellipse cx="98.6207" cy="68.7364" rx="1.49426" ry="1.49426" fill="#81818D"/>
<circle cx="106.092" cy="61.2648" r="1.49426" fill="#81818D"/>
<ellipse cx="113.564" cy="61.2648" rx="1.49426" ry="1.49426" fill="#81818D"/>
<ellipse cx="106.092" cy="68.7364" rx="1.49426" ry="1.49426" fill="#81818D"/>
<ellipse cx="113.564" cy="68.7364" rx="1.49426" ry="1.49426" fill="#81818D"/>
<circle cx="121.035" cy="61.2648" r="1.49426" fill="#81818D"/>
<ellipse cx="128.506" cy="61.2648" rx="1.49426" ry="1.49426" fill="#81818D"/>
<ellipse cx="121.035" cy="68.7364" rx="1.49426" ry="1.49426" fill="#81818D"/>
<ellipse cx="128.506" cy="68.7364" rx="1.49426" ry="1.49426" fill="#81818D"/>
<circle cx="1.49426" cy="76.2071" r="1.49426" fill="#81818D"/>
<ellipse cx="8.96545" cy="76.2071" rx="1.49426" ry="1.49426" fill="#81818D"/>
<ellipse cx="1.49426" cy="83.6788" rx="1.49426" ry="1.49426" fill="#81818D"/>
<ellipse cx="8.96545" cy="83.6788" rx="1.49426" ry="1.49426" fill="#81818D"/>
<circle cx="16.4366" cy="76.2071" r="1.49426" fill="#81818D"/>
<ellipse cx="23.9078" cy="76.2071" rx="1.49426" ry="1.49426" fill="#81818D"/>
<ellipse cx="16.4366" cy="83.6788" rx="1.49426" ry="1.49426" fill="#81818D"/>
<ellipse cx="23.9078" cy="83.6788" rx="1.49426" ry="1.49426" fill="#81818D"/>
<circle cx="31.3795" cy="76.2071" r="1.49426" fill="#81818D"/>
<ellipse cx="38.8507" cy="76.2071" rx="1.49426" ry="1.49426" fill="#81818D"/>
<ellipse cx="31.3795" cy="83.6788" rx="1.49426" ry="1.49426" fill="#81818D"/>
<ellipse cx="38.8507" cy="83.6788" rx="1.49426" ry="1.49426" fill="#81818D"/>
<circle cx="46.3219" cy="76.2071" r="1.49426" fill="#81818D"/>
<ellipse cx="53.7931" cy="76.2071" rx="1.49426" ry="1.49426" fill="#81818D"/>
<ellipse cx="46.3219" cy="83.6788" rx="1.49426" ry="1.49426" fill="#81818D"/>
<ellipse cx="53.7931" cy="83.6788" rx="1.49426" ry="1.49426" fill="#81818D"/>
<circle cx="61.2643" cy="76.2071" r="1.49426" fill="#81818D"/>
<ellipse cx="68.7355" cy="76.2071" rx="1.49426" ry="1.49426" fill="#81818D"/>
<ellipse cx="61.2643" cy="83.6788" rx="1.49426" ry="1.49426" fill="#81818D"/>
<ellipse cx="68.7355" cy="83.6788" rx="1.49426" ry="1.49426" fill="#81818D"/>
<circle cx="76.2071" cy="76.2071" r="1.49426" fill="#81818D"/>
<ellipse cx="83.6783" cy="76.2071" rx="1.49426" ry="1.49426" fill="#81818D"/>
<ellipse cx="76.2071" cy="83.6788" rx="1.49426" ry="1.49426" fill="#81818D"/>
<ellipse cx="83.6783" cy="83.6788" rx="1.49426" ry="1.49426" fill="#81818D"/>
<circle cx="91.1495" cy="76.2071" r="1.49426" fill="#81818D"/>
<ellipse cx="98.6207" cy="76.2071" rx="1.49426" ry="1.49426" fill="#81818D"/>
<ellipse cx="91.1495" cy="83.6788" rx="1.49426" ry="1.49426" fill="#81818D"/>
<ellipse cx="98.6207" cy="83.6788" rx="1.49426" ry="1.49426" fill="#81818D"/>
<circle cx="106.092" cy="76.2071" r="1.49426" fill="#81818D"/>
<ellipse cx="113.564" cy="76.2071" rx="1.49426" ry="1.49426" fill="#81818D"/>
<ellipse cx="106.092" cy="83.6788" rx="1.49426" ry="1.49426" fill="#81818D"/>
<ellipse cx="113.564" cy="83.6788" rx="1.49426" ry="1.49426" fill="#81818D"/>
<circle cx="121.035" cy="76.2071" r="1.49426" fill="#81818D"/>
<ellipse cx="128.506" cy="76.2071" rx="1.49426" ry="1.49426" fill="#81818D"/>
<ellipse cx="121.035" cy="83.6788" rx="1.49426" ry="1.49426" fill="#81818D"/>
<ellipse cx="128.506" cy="83.6788" rx="1.49426" ry="1.49426" fill="#81818D"/>
<circle cx="1.49426" cy="91.1495" r="1.49426" fill="#81818D"/>
<ellipse cx="8.96545" cy="91.1495" rx="1.49426" ry="1.49426" fill="#81818D"/>
<ellipse cx="1.49426" cy="98.6212" rx="1.49426" ry="1.49426" fill="#81818D"/>
<ellipse cx="8.96545" cy="98.6212" rx="1.49426" ry="1.49426" fill="#81818D"/>
<circle cx="16.4366" cy="91.1495" r="1.49426" fill="#81818D"/>
<ellipse cx="23.9078" cy="91.1495" rx="1.49426" ry="1.49426" fill="#81818D"/>
<ellipse cx="16.4366" cy="98.6212" rx="1.49426" ry="1.49426" fill="#81818D"/>
<ellipse cx="23.9078" cy="98.6212" rx="1.49426" ry="1.49426" fill="#81818D"/>
<circle cx="31.3795" cy="91.1495" r="1.49426" fill="#81818D"/>
<ellipse cx="38.8507" cy="91.1495" rx="1.49426" ry="1.49426" fill="#81818D"/>
<ellipse cx="31.3795" cy="98.6212" rx="1.49426" ry="1.49426" fill="#81818D"/>
<ellipse cx="38.8507" cy="98.6212" rx="1.49426" ry="1.49426" fill="#81818D"/>
<circle cx="46.3219" cy="91.1495" r="1.49426" fill="#81818D"/>
<ellipse cx="53.7931" cy="91.1495" rx="1.49426" ry="1.49426" fill="#81818D"/>
<ellipse cx="46.3219" cy="98.6212" rx="1.49426" ry="1.49426" fill="#81818D"/>
<ellipse cx="53.7931" cy="98.6212" rx="1.49426" ry="1.49426" fill="#81818D"/>
<circle cx="61.2643" cy="91.1495" r="1.49426" fill="#81818D"/>
<ellipse cx="68.7355" cy="91.1495" rx="1.49426" ry="1.49426" fill="#81818D"/>
<ellipse cx="61.2643" cy="98.6212" rx="1.49426" ry="1.49426" fill="#81818D"/>
<ellipse cx="68.7355" cy="98.6212" rx="1.49426" ry="1.49426" fill="#81818D"/>
<circle cx="76.2071" cy="91.1495" r="1.49426" fill="#81818D"/>
<ellipse cx="83.6783" cy="91.1495" rx="1.49426" ry="1.49426" fill="#81818D"/>
<ellipse cx="76.2071" cy="98.6212" rx="1.49426" ry="1.49426" fill="#81818D"/>
<ellipse cx="83.6783" cy="98.6212" rx="1.49426" ry="1.49426" fill="#81818D"/>
<circle cx="91.1495" cy="91.1495" r="1.49426" fill="#81818D"/>
<ellipse cx="98.6207" cy="91.1495" rx="1.49426" ry="1.49426" fill="#81818D"/>
<ellipse cx="91.1495" cy="98.6212" rx="1.49426" ry="1.49426" fill="#81818D"/>
<ellipse cx="98.6207" cy="98.6212" rx="1.49426" ry="1.49426" fill="#81818D"/>
<circle cx="106.092" cy="91.1495" r="1.49426" fill="#81818D"/>
<ellipse cx="113.564" cy="91.1495" rx="1.49426" ry="1.49426" fill="#81818D"/>
<ellipse cx="106.092" cy="98.6212" rx="1.49426" ry="1.49426" fill="#81818D"/>
<ellipse cx="113.564" cy="98.6212" rx="1.49426" ry="1.49426" fill="#81818D"/>
<circle cx="121.035" cy="91.1495" r="1.49426" fill="#81818D"/>
<ellipse cx="128.506" cy="91.1495" rx="1.49426" ry="1.49426" fill="#81818D"/>
<ellipse cx="121.035" cy="98.6212" rx="1.49426" ry="1.49426" fill="#81818D"/>
<ellipse cx="128.506" cy="98.6212" rx="1.49426" ry="1.49426" fill="#81818D"/>
<circle cx="1.49426" cy="106.092" r="1.49426" fill="#81818D"/>
<ellipse cx="8.96545" cy="106.092" rx="1.49426" ry="1.49426" fill="#81818D"/>
<ellipse cx="1.49426" cy="113.564" rx="1.49426" ry="1.49426" fill="#81818D"/>
<ellipse cx="8.96545" cy="113.564" rx="1.49426" ry="1.49426" fill="#81818D"/>
<circle cx="16.4366" cy="106.092" r="1.49426" fill="#81818D"/>
<ellipse cx="23.9078" cy="106.092" rx="1.49426" ry="1.49426" fill="#81818D"/>
<ellipse cx="16.4366" cy="113.564" rx="1.49426" ry="1.49426" fill="#81818D"/>
<ellipse cx="23.9078" cy="113.564" rx="1.49426" ry="1.49426" fill="#81818D"/>
<circle cx="31.3795" cy="106.092" r="1.49426" fill="#81818D"/>
<ellipse cx="38.8507" cy="106.092" rx="1.49426" ry="1.49426" fill="#81818D"/>
<ellipse cx="31.3795" cy="113.564" rx="1.49426" ry="1.49426" fill="#81818D"/>
<ellipse cx="38.8507" cy="113.564" rx="1.49426" ry="1.49426" fill="#81818D"/>
<circle cx="46.3219" cy="106.092" r="1.49426" fill="#81818D"/>
<ellipse cx="53.7931" cy="106.092" rx="1.49426" ry="1.49426" fill="#81818D"/>
<ellipse cx="46.3219" cy="113.564" rx="1.49426" ry="1.49426" fill="#81818D"/>
<ellipse cx="53.7931" cy="113.564" rx="1.49426" ry="1.49426" fill="#81818D"/>
<circle cx="61.2643" cy="106.092" r="1.49426" fill="#81818D"/>
<ellipse cx="68.7355" cy="106.092" rx="1.49426" ry="1.49426" fill="#81818D"/>
<ellipse cx="61.2643" cy="113.564" rx="1.49426" ry="1.49426" fill="#81818D"/>
<ellipse cx="68.7355" cy="113.564" rx="1.49426" ry="1.49426" fill="#81818D"/>
<circle cx="76.2071" cy="106.092" r="1.49426" fill="#81818D"/>
<ellipse cx="83.6783" cy="106.092" rx="1.49426" ry="1.49426" fill="#81818D"/>
<ellipse cx="76.2071" cy="113.564" rx="1.49426" ry="1.49426" fill="#81818D"/>
<ellipse cx="83.6783" cy="113.564" rx="1.49426" ry="1.49426" fill="#81818D"/>
<circle cx="91.1495" cy="106.092" r="1.49426" fill="#81818D"/>
<ellipse cx="98.6207" cy="106.092" rx="1.49426" ry="1.49426" fill="#81818D"/>
<ellipse cx="91.1495" cy="113.564" rx="1.49426" ry="1.49426" fill="#81818D"/>
<ellipse cx="98.6207" cy="113.564" rx="1.49426" ry="1.49426" fill="#81818D"/>
<circle cx="106.092" cy="106.092" r="1.49426" fill="#81818D"/>
<ellipse cx="113.564" cy="106.092" rx="1.49426" ry="1.49426" fill="#81818D"/>
<ellipse cx="106.092" cy="113.564" rx="1.49426" ry="1.49426" fill="#81818D"/>
<ellipse cx="113.564" cy="113.564" rx="1.49426" ry="1.49426" fill="#81818D"/>
<circle cx="121.035" cy="106.092" r="1.49426" fill="#81818D"/>
<ellipse cx="128.506" cy="106.092" rx="1.49426" ry="1.49426" fill="#81818D"/>
<ellipse cx="121.035" cy="113.564" rx="1.49426" ry="1.49426" fill="#81818D"/>
<ellipse cx="128.506" cy="113.564" rx="1.49426" ry="1.49426" fill="#81818D"/>
<circle cx="1.49426" cy="121.034" r="1.49426" fill="#81818D"/>
<ellipse cx="8.96545" cy="121.034" rx="1.49426" ry="1.49426" fill="#81818D"/>
<ellipse cx="1.49426" cy="128.506" rx="1.49426" ry="1.49426" fill="#81818D"/>
<ellipse cx="8.96545" cy="128.506" rx="1.49426" ry="1.49426" fill="#81818D"/>
<circle cx="16.4366" cy="121.034" r="1.49426" fill="#81818D"/>
<ellipse cx="23.9078" cy="121.034" rx="1.49426" ry="1.49426" fill="#81818D"/>
<ellipse cx="16.4366" cy="128.506" rx="1.49426" ry="1.49426" fill="#81818D"/>
<ellipse cx="23.9078" cy="128.506" rx="1.49426" ry="1.49426" fill="#81818D"/>
<circle cx="31.3795" cy="121.034" r="1.49426" fill="#81818D"/>
<ellipse cx="38.8507" cy="121.034" rx="1.49426" ry="1.49426" fill="#81818D"/>
<ellipse cx="31.3795" cy="128.506" rx="1.49426" ry="1.49426" fill="#81818D"/>
<ellipse cx="38.8507" cy="128.506" rx="1.49426" ry="1.49426" fill="#81818D"/>
<circle cx="46.3219" cy="121.034" r="1.49426" fill="#81818D"/>
<ellipse cx="53.7931" cy="121.034" rx="1.49426" ry="1.49426" fill="#81818D"/>
<ellipse cx="46.3219" cy="128.506" rx="1.49426" ry="1.49426" fill="#81818D"/>
<ellipse cx="53.7931" cy="128.506" rx="1.49426" ry="1.49426" fill="#81818D"/>
<circle cx="61.2643" cy="121.034" r="1.49426" fill="#81818D"/>
<ellipse cx="68.7355" cy="121.034" rx="1.49426" ry="1.49426" fill="#81818D"/>
<ellipse cx="61.2643" cy="128.506" rx="1.49426" ry="1.49426" fill="#81818D"/>
<ellipse cx="68.7355" cy="128.506" rx="1.49426" ry="1.49426" fill="#81818D"/>
<circle cx="76.2071" cy="121.034" r="1.49426" fill="#81818D"/>
<ellipse cx="83.6783" cy="121.034" rx="1.49426" ry="1.49426" fill="#81818D"/>
<ellipse cx="76.2071" cy="128.506" rx="1.49426" ry="1.49426" fill="#81818D"/>
<ellipse cx="83.6783" cy="128.506" rx="1.49426" ry="1.49426" fill="#81818D"/>
<circle cx="91.1495" cy="121.034" r="1.49426" fill="#81818D"/>
<ellipse cx="98.6207" cy="121.034" rx="1.49426" ry="1.49426" fill="#81818D"/>
<ellipse cx="91.1495" cy="128.506" rx="1.49426" ry="1.49426" fill="#81818D"/>
<ellipse cx="98.6207" cy="128.506" rx="1.49426" ry="1.49426" fill="#81818D"/>
<circle cx="106.092" cy="121.034" r="1.49426" fill="#81818D"/>
<ellipse cx="113.564" cy="121.034" rx="1.49426" ry="1.49426" fill="#81818D"/>
<ellipse cx="106.092" cy="128.506" rx="1.49426" ry="1.49426" fill="#81818D"/>
<ellipse cx="113.564" cy="128.506" rx="1.49426" ry="1.49426" fill="#81818D"/>
<circle cx="121.035" cy="121.034" r="1.49426" fill="#81818D"/>
<ellipse cx="128.506" cy="121.034" rx="1.49426" ry="1.49426" fill="#81818D"/>
<ellipse cx="121.035" cy="128.506" rx="1.49426" ry="1.49426" fill="#81818D"/>
<ellipse cx="128.506" cy="128.506" rx="1.49426" ry="1.49426" fill="#81818D"/>
</g>
</svg>
