<svg width="222" height="267" viewBox="0 65 222 202" fill="none" xmlns="http://www.w3.org/2000/svg">
<g style="mix-blend-mode:multiply">
<path fill-rule="evenodd" clip-rule="evenodd" d="M156.485 12.8509C156.644 12.8813 156.803 12.9124 156.962 12.944C157.121 12.9757 157.28 13.0079 157.438 13.0406L156.485 12.8509ZM209.098 90.7191C209.084 90.7884 209.07 90.8576 209.057 90.9268C201.908 126.847 166.994 150.17 131.074 143.022C95.1537 135.873 71.8301 100.959 78.9788 65.0388C78.9926 64.9696 79.0065 64.9004 79.0205 64.8313L209.098 90.7191Z" fill="#66E381"/>
</g>
<g style="mix-blend-mode:multiply">
<path fill-rule="evenodd" clip-rule="evenodd" d="M0.000643633 171.25C0.0516145 171.199 0.10268 171.148 0.15385 171.097C26.3641 144.886 68.8592 144.886 95.0694 171.097C121.28 197.307 121.28 239.802 95.0694 266.012C95.0183 266.064 94.967 266.115 94.9158 266.166L0.000643633 171.25Z" fill="#6137A5"/>
</g>
<g style="mix-blend-mode:multiply">
<path d="M160.751 186.04C149.566 197.225 149.566 215.36 160.751 226.545C171.936 237.73 190.07 237.73 201.255 226.545C212.441 215.36 212.441 197.225 201.255 186.04C190.07 174.855 171.936 174.855 160.751 186.04Z" fill="#4CC7C6"/>
</g>
</svg>
