<svg width="20" height="20" viewBox="0 0 20 20" fill="none" xmlns="http://www.w3.org/2000/svg">
<path d="M20 12.1614V19.5555H15.7134V12.6566C15.7134 10.9235 15.0933 9.74078 13.5417 9.74078C12.3572 9.74078 11.6524 10.5379 11.3423 11.3089C11.2292 11.5846 11.2001 11.9682 11.2001 12.3541V19.5555H6.91198C6.91198 19.5555 6.96973 7.87101 6.91198 6.66041H11.1997V8.48824C11.191 8.50191 11.1797 8.51665 11.1715 8.5299H11.1997V8.48824C11.7693 7.61085 12.7867 6.35747 15.0638 6.35747C17.885 6.35743 20 8.2005 20 12.1614ZM2.42646 0.444336C0.959506 0.444336 0 1.40654 0 2.67187C0 3.90963 0.931746 4.90103 2.36954 4.90103H2.39818C3.89355 4.90103 4.82352 3.90981 4.82352 2.67187C4.79535 1.40654 3.89355 0.444336 2.42646 0.444336ZM0.254675 19.5555H4.54114V6.66041H0.254675V19.5555Z" fill="#81818D"/>
</svg>
